<mxfile host="app.diagrams.net" agent="Mozilla/5.0 (Windows NT 10.0; Win64; x64) AppleWebKit/537.36 (KHTML, like Gecko) Chrome/111.0.0.0 Safari/537.36" version="26.0.16">
  <diagram id="8SPFMyG9HEnadVJpUOck" name="第 1 页">
    <mxGraphModel dx="3324" dy="1630" grid="0" gridSize="100" guides="1" tooltips="1" connect="1" arrows="1" fold="1" page="0" pageScale="1" pageWidth="1169" pageHeight="827" math="0" shadow="0">
      <root>
        <mxCell id="0" />
        <mxCell id="1" parent="0" />
        <mxCell id="uu7l3Kxnv63Fepq91U7A-2" value="" style="text;fillColor=#f8cecc;html=1;fontSize=24;fontStyle=1;verticalAlign=middle;align=center;shadow=1;strokeColor=#b85450;dashed=1;rounded=1;gradientColor=#ea6b66;opacity=90;" vertex="1" parent="1">
          <mxGeometry x="857" y="9144" width="732" height="993" as="geometry" />
        </mxCell>
        <mxCell id="uu7l3Kxnv63Fepq91U7A-48" value="" style="shape=table;html=1;whiteSpace=wrap;startSize=0;container=1;collapsible=0;childLayout=tableLayout;fontSize=33;fontStyle=1" vertex="1" parent="1">
          <mxGeometry x="934.5" y="9330" width="595.5" height="750" as="geometry" />
        </mxCell>
        <mxCell id="uu7l3Kxnv63Fepq91U7A-49" value="" style="shape=partialRectangle;html=1;whiteSpace=wrap;collapsible=0;dropTarget=0;pointerEvents=0;fillColor=none;top=0;left=0;bottom=0;right=0;points=[[0,0.5],[1,0.5]];portConstraint=eastwest;fontSize=33;fontStyle=1" vertex="1" parent="uu7l3Kxnv63Fepq91U7A-48">
          <mxGeometry width="595.5" height="108" as="geometry" />
        </mxCell>
        <mxCell id="uu7l3Kxnv63Fepq91U7A-50" value="长连接（标准化）" style="shape=partialRectangle;html=1;whiteSpace=wrap;connectable=0;overflow=hidden;fillColor=none;top=0;left=0;bottom=0;right=0;fontSize=33;fontStyle=1" vertex="1" parent="uu7l3Kxnv63Fepq91U7A-49">
          <mxGeometry width="596" height="108" as="geometry">
            <mxRectangle width="596" height="108" as="alternateBounds" />
          </mxGeometry>
        </mxCell>
        <mxCell id="uu7l3Kxnv63Fepq91U7A-51" value="" style="shape=partialRectangle;html=1;whiteSpace=wrap;collapsible=0;dropTarget=0;pointerEvents=0;fillColor=none;top=0;left=0;bottom=0;right=0;points=[[0,0.5],[1,0.5]];portConstraint=eastwest;fontSize=33;fontStyle=1" vertex="1" parent="uu7l3Kxnv63Fepq91U7A-48">
          <mxGeometry y="108" width="595.5" height="106" as="geometry" />
        </mxCell>
        <mxCell id="uu7l3Kxnv63Fepq91U7A-52" value="支持（单 IP 托管多域名）" style="shape=partialRectangle;html=1;whiteSpace=wrap;connectable=0;overflow=hidden;fillColor=none;top=0;left=0;bottom=0;right=0;fontSize=33;fontStyle=1" vertex="1" parent="uu7l3Kxnv63Fepq91U7A-51">
          <mxGeometry width="596" height="106" as="geometry">
            <mxRectangle width="596" height="106" as="alternateBounds" />
          </mxGeometry>
        </mxCell>
        <mxCell id="uu7l3Kxnv63Fepq91U7A-53" value="" style="shape=partialRectangle;html=1;whiteSpace=wrap;collapsible=0;dropTarget=0;pointerEvents=0;fillColor=none;top=0;left=0;bottom=0;right=0;points=[[0,0.5],[1,0.5]];portConstraint=eastwest;fontSize=33;fontStyle=1" vertex="1" parent="uu7l3Kxnv63Fepq91U7A-48">
          <mxGeometry y="214" width="595.5" height="108" as="geometry" />
        </mxCell>
        <mxCell id="uu7l3Kxnv63Fepq91U7A-54" value="支持（动态内容流式传输）" style="shape=partialRectangle;html=1;whiteSpace=wrap;connectable=0;overflow=hidden;fillColor=none;top=0;left=0;bottom=0;right=0;fontSize=33;fontStyle=1" vertex="1" parent="uu7l3Kxnv63Fepq91U7A-53">
          <mxGeometry width="596" height="108" as="geometry">
            <mxRectangle width="596" height="108" as="alternateBounds" />
          </mxGeometry>
        </mxCell>
        <mxCell id="uu7l3Kxnv63Fepq91U7A-55" value="" style="shape=partialRectangle;html=1;whiteSpace=wrap;collapsible=0;dropTarget=0;pointerEvents=0;fillColor=none;top=0;left=0;bottom=0;right=0;points=[[0,0.5],[1,0.5]];portConstraint=eastwest;fontSize=33;fontStyle=1" vertex="1" parent="uu7l3Kxnv63Fepq91U7A-48">
          <mxGeometry y="322" width="595.5" height="106" as="geometry" />
        </mxCell>
        <mxCell id="uu7l3Kxnv63Fepq91U7A-56" value="新增 ETag / Cache-Control" style="shape=partialRectangle;html=1;whiteSpace=wrap;connectable=0;overflow=hidden;fillColor=none;top=0;left=0;bottom=0;right=0;fontSize=33;fontStyle=1" vertex="1" parent="uu7l3Kxnv63Fepq91U7A-55">
          <mxGeometry width="596" height="106" as="geometry">
            <mxRectangle width="596" height="106" as="alternateBounds" />
          </mxGeometry>
        </mxCell>
        <mxCell id="uu7l3Kxnv63Fepq91U7A-57" value="" style="shape=partialRectangle;html=1;whiteSpace=wrap;collapsible=0;dropTarget=0;pointerEvents=0;fillColor=none;top=0;left=0;bottom=0;right=0;points=[[0,0.5],[1,0.5]];portConstraint=eastwest;fontSize=33;fontStyle=1" vertex="1" parent="uu7l3Kxnv63Fepq91U7A-48">
          <mxGeometry y="428" width="595.5" height="108" as="geometry" />
        </mxCell>
        <mxCell id="uu7l3Kxnv63Fepq91U7A-58" value="存在（支持长连接，&lt;span style=&quot;background-color: transparent;&quot;&gt;服务器&lt;/span&gt;&lt;div&gt;&lt;span style=&quot;background-color: transparent;&quot;&gt;按顺序处理请求）&lt;/span&gt;&lt;/div&gt;" style="shape=partialRectangle;html=1;whiteSpace=wrap;connectable=0;overflow=hidden;fillColor=none;top=0;left=0;bottom=0;right=0;fontSize=33;fontStyle=1" vertex="1" parent="uu7l3Kxnv63Fepq91U7A-57">
          <mxGeometry width="596" height="108" as="geometry">
            <mxRectangle width="596" height="108" as="alternateBounds" />
          </mxGeometry>
        </mxCell>
        <mxCell id="uu7l3Kxnv63Fepq91U7A-59" value="" style="shape=partialRectangle;html=1;whiteSpace=wrap;collapsible=0;dropTarget=0;pointerEvents=0;fillColor=none;top=0;left=0;bottom=0;right=0;points=[[0,0.5],[1,0.5]];portConstraint=eastwest;fontSize=33;fontStyle=1" vertex="1" parent="uu7l3Kxnv63Fepq91U7A-48">
          <mxGeometry y="536" width="595.5" height="106" as="geometry" />
        </mxCell>
        <mxCell id="uu7l3Kxnv63Fepq91U7A-60" value="支持断点续传" style="shape=partialRectangle;html=1;whiteSpace=wrap;connectable=0;overflow=hidden;fillColor=none;top=0;left=0;bottom=0;right=0;fontSize=33;fontStyle=1" vertex="1" parent="uu7l3Kxnv63Fepq91U7A-59">
          <mxGeometry width="596" height="106" as="geometry">
            <mxRectangle width="596" height="106" as="alternateBounds" />
          </mxGeometry>
        </mxCell>
        <mxCell id="uu7l3Kxnv63Fepq91U7A-61" value="" style="shape=partialRectangle;html=1;whiteSpace=wrap;collapsible=0;dropTarget=0;pointerEvents=0;fillColor=none;top=0;left=0;bottom=0;right=0;points=[[0,0.5],[1,0.5]];portConstraint=eastwest;fontSize=33;fontStyle=1" vertex="1" parent="uu7l3Kxnv63Fepq91U7A-48">
          <mxGeometry y="642" width="595.5" height="108" as="geometry" />
        </mxCell>
        <mxCell id="uu7l3Kxnv63Fepq91U7A-62" value="扩展到40+（新增100，409，410等&lt;div&gt;状态码）&lt;/div&gt;" style="shape=partialRectangle;html=1;whiteSpace=wrap;connectable=0;overflow=hidden;fillColor=none;top=0;left=0;bottom=0;right=0;fontSize=33;fontStyle=1" vertex="1" parent="uu7l3Kxnv63Fepq91U7A-61">
          <mxGeometry width="596" height="108" as="geometry">
            <mxRectangle width="596" height="108" as="alternateBounds" />
          </mxGeometry>
        </mxCell>
        <mxCell id="uu7l3Kxnv63Fepq91U7A-1" value="" style="text;fillColor=#dae8fc;html=1;fontSize=24;fontStyle=1;verticalAlign=middle;align=center;shadow=1;strokeColor=#6c8ebf;dashed=1;rounded=1;gradientColor=#7ea6e0;textShadow=1;glass=0;opacity=90;" vertex="1" parent="1">
          <mxGeometry x="-362" y="9144" width="732" height="993" as="geometry" />
        </mxCell>
        <mxCell id="uu7l3Kxnv63Fepq91U7A-33" value="" style="shape=table;html=1;whiteSpace=wrap;startSize=0;container=1;collapsible=0;childLayout=tableLayout;fontSize=33;fontStyle=1" vertex="1" parent="1">
          <mxGeometry x="-302" y="9325" width="586" height="755" as="geometry" />
        </mxCell>
        <mxCell id="uu7l3Kxnv63Fepq91U7A-34" value="" style="shape=partialRectangle;html=1;whiteSpace=wrap;collapsible=0;dropTarget=0;pointerEvents=0;fillColor=none;top=0;left=0;bottom=0;right=0;points=[[0,0.5],[1,0.5]];portConstraint=eastwest;fontSize=33;fontStyle=1" vertex="1" parent="uu7l3Kxnv63Fepq91U7A-33">
          <mxGeometry width="586" height="109" as="geometry" />
        </mxCell>
        <mxCell id="uu7l3Kxnv63Fepq91U7A-35" value="短链接（需手动启用长连接）" style="shape=partialRectangle;html=1;whiteSpace=wrap;connectable=0;overflow=hidden;fillColor=none;top=0;left=0;bottom=0;right=0;fontSize=33;fontStyle=1" vertex="1" parent="uu7l3Kxnv63Fepq91U7A-34">
          <mxGeometry width="586" height="109" as="geometry">
            <mxRectangle width="586" height="109" as="alternateBounds" />
          </mxGeometry>
        </mxCell>
        <mxCell id="uu7l3Kxnv63Fepq91U7A-36" value="" style="shape=partialRectangle;html=1;whiteSpace=wrap;collapsible=0;dropTarget=0;pointerEvents=0;fillColor=none;top=0;left=0;bottom=0;right=0;points=[[0,0.5],[1,0.5]];portConstraint=eastwest;fontSize=33;fontStyle=1" vertex="1" parent="uu7l3Kxnv63Fepq91U7A-33">
          <mxGeometry y="109" width="586" height="106" as="geometry" />
        </mxCell>
        <mxCell id="uu7l3Kxnv63Fepq91U7A-37" value="不支持" style="shape=partialRectangle;html=1;whiteSpace=wrap;connectable=0;overflow=hidden;fillColor=none;top=0;left=0;bottom=0;right=0;fontSize=33;fontStyle=1" vertex="1" parent="uu7l3Kxnv63Fepq91U7A-36">
          <mxGeometry width="586" height="106" as="geometry">
            <mxRectangle width="586" height="106" as="alternateBounds" />
          </mxGeometry>
        </mxCell>
        <mxCell id="uu7l3Kxnv63Fepq91U7A-38" value="" style="shape=partialRectangle;html=1;whiteSpace=wrap;collapsible=0;dropTarget=0;pointerEvents=0;fillColor=none;top=0;left=0;bottom=0;right=0;points=[[0,0.5],[1,0.5]];portConstraint=eastwest;fontSize=33;fontStyle=1" vertex="1" parent="uu7l3Kxnv63Fepq91U7A-33">
          <mxGeometry y="215" width="586" height="109" as="geometry" />
        </mxCell>
        <mxCell id="uu7l3Kxnv63Fepq91U7A-39" value="不支持" style="shape=partialRectangle;html=1;whiteSpace=wrap;connectable=0;overflow=hidden;fillColor=none;top=0;left=0;bottom=0;right=0;fontSize=33;fontStyle=1" vertex="1" parent="uu7l3Kxnv63Fepq91U7A-38">
          <mxGeometry width="586" height="109" as="geometry">
            <mxRectangle width="586" height="109" as="alternateBounds" />
          </mxGeometry>
        </mxCell>
        <mxCell id="uu7l3Kxnv63Fepq91U7A-40" value="" style="shape=partialRectangle;html=1;whiteSpace=wrap;collapsible=0;dropTarget=0;pointerEvents=0;fillColor=none;top=0;left=0;bottom=0;right=0;points=[[0,0.5],[1,0.5]];portConstraint=eastwest;fontSize=33;fontStyle=1" vertex="1" parent="uu7l3Kxnv63Fepq91U7A-33">
          <mxGeometry y="324" width="586" height="107" as="geometry" />
        </mxCell>
        <mxCell id="uu7l3Kxnv63Fepq91U7A-41" value="仅 Expires / Last-Modified" style="shape=partialRectangle;html=1;whiteSpace=wrap;connectable=0;overflow=hidden;fillColor=none;top=0;left=0;bottom=0;right=0;fontSize=33;fontStyle=1" vertex="1" parent="uu7l3Kxnv63Fepq91U7A-40">
          <mxGeometry width="586" height="107" as="geometry">
            <mxRectangle width="586" height="107" as="alternateBounds" />
          </mxGeometry>
        </mxCell>
        <mxCell id="uu7l3Kxnv63Fepq91U7A-42" value="" style="shape=partialRectangle;html=1;whiteSpace=wrap;collapsible=0;dropTarget=0;pointerEvents=0;fillColor=none;top=0;left=0;bottom=0;right=0;points=[[0,0.5],[1,0.5]];portConstraint=eastwest;fontSize=33;fontStyle=1" vertex="1" parent="uu7l3Kxnv63Fepq91U7A-33">
          <mxGeometry y="431" width="586" height="109" as="geometry" />
        </mxCell>
        <mxCell id="uu7l3Kxnv63Fepq91U7A-43" value="无" style="shape=partialRectangle;html=1;whiteSpace=wrap;connectable=0;overflow=hidden;fillColor=none;top=0;left=0;bottom=0;right=0;fontSize=33;fontStyle=1" vertex="1" parent="uu7l3Kxnv63Fepq91U7A-42">
          <mxGeometry width="586" height="109" as="geometry">
            <mxRectangle width="586" height="109" as="alternateBounds" />
          </mxGeometry>
        </mxCell>
        <mxCell id="uu7l3Kxnv63Fepq91U7A-44" value="" style="shape=partialRectangle;html=1;whiteSpace=wrap;collapsible=0;dropTarget=0;pointerEvents=0;fillColor=none;top=0;left=0;bottom=0;right=0;points=[[0,0.5],[1,0.5]];portConstraint=eastwest;fontSize=33;fontStyle=1" vertex="1" parent="uu7l3Kxnv63Fepq91U7A-33">
          <mxGeometry y="540" width="586" height="106" as="geometry" />
        </mxCell>
        <mxCell id="uu7l3Kxnv63Fepq91U7A-45" value="不支持" style="shape=partialRectangle;html=1;whiteSpace=wrap;connectable=0;overflow=hidden;fillColor=none;top=0;left=0;bottom=0;right=0;fontSize=33;fontStyle=1" vertex="1" parent="uu7l3Kxnv63Fepq91U7A-44">
          <mxGeometry width="586" height="106" as="geometry">
            <mxRectangle width="586" height="106" as="alternateBounds" />
          </mxGeometry>
        </mxCell>
        <mxCell id="uu7l3Kxnv63Fepq91U7A-46" value="" style="shape=partialRectangle;html=1;whiteSpace=wrap;collapsible=0;dropTarget=0;pointerEvents=0;fillColor=none;top=0;left=0;bottom=0;right=0;points=[[0,0.5],[1,0.5]];portConstraint=eastwest;fontSize=33;fontStyle=1" vertex="1" parent="uu7l3Kxnv63Fepq91U7A-33">
          <mxGeometry y="646" width="586" height="109" as="geometry" />
        </mxCell>
        <mxCell id="uu7l3Kxnv63Fepq91U7A-47" value="基础状态码（如200，404）" style="shape=partialRectangle;html=1;whiteSpace=wrap;connectable=0;overflow=hidden;fillColor=none;top=0;left=0;bottom=0;right=0;fontSize=33;fontStyle=1" vertex="1" parent="uu7l3Kxnv63Fepq91U7A-46">
          <mxGeometry width="586" height="109" as="geometry">
            <mxRectangle width="586" height="109" as="alternateBounds" />
          </mxGeometry>
        </mxCell>
        <mxCell id="XAhxIHD1JuEFwf7Ed8fU-1" value="" style="text;fillColor=#d5e8d4;html=1;fontSize=24;fontStyle=1;verticalAlign=middle;align=center;shadow=1;strokeColor=#82b366;dashed=1;rounded=1;rotation=-90;glass=1;gradientColor=#97d077;" parent="1" vertex="1">
          <mxGeometry x="171.82" y="6868.08" width="1361.82" height="2335.93" as="geometry" />
        </mxCell>
        <mxCell id="EWVK0juN6aZe-70fhaZd-25" value="" style="edgeStyle=orthogonalEdgeStyle;rounded=0;orthogonalLoop=1;jettySize=auto;html=1;strokeWidth=3;" parent="1" source="EWVK0juN6aZe-70fhaZd-13" target="EWVK0juN6aZe-70fhaZd-24" edge="1">
          <mxGeometry relative="1" as="geometry" />
        </mxCell>
        <mxCell id="s4eQD-G11fO3ZMLgUpAx-88" value="" style="text;fillColor=#f8cecc;html=1;fontSize=24;fontStyle=1;verticalAlign=middle;align=center;shadow=1;strokeColor=#b85450;dashed=1;opacity=15;rounded=1;sketch=1;rotation=-90;" parent="1" vertex="1">
          <mxGeometry x="364.25" y="5862.25" width="333" height="2266" as="geometry" />
        </mxCell>
        <mxCell id="s4eQD-G11fO3ZMLgUpAx-87" value="" style="text;fillColor=#d5e8d4;html=1;fontSize=24;fontStyle=1;verticalAlign=middle;align=center;shadow=1;strokeColor=#82b366;dashed=1;opacity=25;rounded=1;sketch=1;rotation=-90;" parent="1" vertex="1">
          <mxGeometry x="355.38" y="5489.62" width="343.5" height="2266" as="geometry" />
        </mxCell>
        <mxCell id="s4eQD-G11fO3ZMLgUpAx-86" value="" style="text;fillColor=#fff2cc;html=1;fontSize=24;fontStyle=1;verticalAlign=middle;align=center;shadow=1;strokeColor=#d6b656;dashed=1;opacity=30;rounded=1;sketch=1;rotation=-90;" parent="1" vertex="1">
          <mxGeometry x="464.87" y="5229.38" width="122.5" height="2254.25" as="geometry" />
        </mxCell>
        <mxCell id="PurhWnnzGo2VnZS157Xb-70" value="" style="text;fillColor=#d5e8d4;html=1;fontSize=24;fontStyle=1;verticalAlign=middle;align=center;shadow=1;strokeColor=#82b366;dashed=1;opacity=50;rounded=1;gradientColor=#97d077;" parent="1" vertex="1">
          <mxGeometry x="-412" y="4812" width="732" height="993" as="geometry" />
        </mxCell>
        <mxCell id="PurhWnnzGo2VnZS157Xb-71" value="" style="text;fillColor=#d5e8d4;html=1;fontSize=24;fontStyle=1;verticalAlign=middle;align=center;shadow=1;strokeColor=#82b366;dashed=1;opacity=50;rounded=1;gradientColor=#97d077;" parent="1" vertex="1">
          <mxGeometry x="807" y="4812" width="732" height="993" as="geometry" />
        </mxCell>
        <mxCell id="vQP0YwdE47mMLyTKJn6r-1" value="" style="rounded=1;whiteSpace=wrap;html=1;strokeWidth=2;fillWeight=4;hachureGap=8;hachureAngle=45;fillColor=#1ba1e2;sketch=1;labelBackgroundColor=#ffffff;" parent="1" vertex="1">
          <mxGeometry x="-270" y="10" width="1550" height="60" as="geometry" />
        </mxCell>
        <mxCell id="vQP0YwdE47mMLyTKJn6r-2" value="一、计算机网络概述" style="text;strokeColor=none;fillColor=none;html=1;fontSize=40;fontStyle=1;verticalAlign=middle;align=center;labelBackgroundColor=#ffffff;" parent="1" vertex="1">
          <mxGeometry x="-280" y="-60" width="370" height="40" as="geometry" />
        </mxCell>
        <mxCell id="vQP0YwdE47mMLyTKJn6r-6" value="" style="text;strokeColor=#36393d;fillColor=#f9f7ed;html=1;fontSize=24;fontStyle=1;verticalAlign=middle;align=center;" parent="1" vertex="1">
          <mxGeometry x="-350" y="2380" width="560" height="735" as="geometry" />
        </mxCell>
        <mxCell id="PNd0fnLT567p1pSeuQi6-2" value="" style="text;strokeColor=#36393d;fillColor=#f9f7ed;html=1;fontSize=24;fontStyle=1;verticalAlign=middle;align=center;" parent="1" vertex="1">
          <mxGeometry x="735" y="2380" width="560" height="735" as="geometry" />
        </mxCell>
        <mxCell id="PNd0fnLT567p1pSeuQi6-3" value="Request Body:&lt;br style=&quot;font-size: 30px&quot;&gt;ELECTIVE, probably used to&amp;nbsp;&lt;br style=&quot;font-size: 30px&quot;&gt;methods like &quot;POST&quot;, &quot;PUT&quot;, etc,&lt;br&gt;including data users input." style="text;strokeColor=#36393d;fillColor=#ffcccc;html=1;fontSize=30;fontStyle=1;verticalAlign=middle;align=center;rounded=1;" parent="1" vertex="1">
          <mxGeometry x="-322.5" y="2835" width="497.5" height="245" as="geometry" />
        </mxCell>
        <mxCell id="PNd0fnLT567p1pSeuQi6-4" value="Request Line" style="text;strokeColor=#36393d;fillColor=#cce5ff;html=1;fontSize=30;fontStyle=1;verticalAlign=middle;align=center;rounded=1;" parent="1" vertex="1">
          <mxGeometry x="-322.5" y="2415" width="497.5" height="105" as="geometry" />
        </mxCell>
        <mxCell id="PNd0fnLT567p1pSeuQi6-5" value="Request Headers" style="text;strokeColor=#36393d;fillColor=#cdeb8b;html=1;fontSize=30;fontStyle=1;verticalAlign=middle;align=center;rounded=1;" parent="1" vertex="1">
          <mxGeometry x="-322.5" y="2555" width="497.5" height="105" as="geometry" />
        </mxCell>
        <mxCell id="PNd0fnLT567p1pSeuQi6-6" value="Empty Line (A blank Line)" style="text;strokeColor=#36393d;fillColor=#eeeeee;html=1;fontSize=30;fontStyle=1;verticalAlign=middle;align=center;rounded=1;" parent="1" vertex="1">
          <mxGeometry x="-322.5" y="2695" width="497.5" height="105" as="geometry" />
        </mxCell>
        <mxCell id="PNd0fnLT567p1pSeuQi6-7" value="Response Body:&amp;nbsp;&lt;br&gt;ELECTIVE, including data&amp;nbsp;&lt;br&gt;server return, maybe no return,&lt;br&gt;like 304." style="text;strokeColor=#36393d;fillColor=#ffcccc;html=1;fontSize=30;fontStyle=1;verticalAlign=middle;align=center;rounded=1;" parent="1" vertex="1">
          <mxGeometry x="764.3800000000001" y="2835" width="497.5" height="245" as="geometry" />
        </mxCell>
        <mxCell id="PNd0fnLT567p1pSeuQi6-8" value="Status Line" style="text;strokeColor=#36393d;fillColor=#cce5ff;html=1;fontSize=30;fontStyle=1;verticalAlign=middle;align=center;rounded=1;" parent="1" vertex="1">
          <mxGeometry x="764.3800000000001" y="2415" width="497.5" height="105" as="geometry" />
        </mxCell>
        <mxCell id="PNd0fnLT567p1pSeuQi6-9" value="Response Headers" style="text;strokeColor=#36393d;fillColor=#cdeb8b;html=1;fontSize=30;fontStyle=1;verticalAlign=middle;align=center;rounded=1;" parent="1" vertex="1">
          <mxGeometry x="764.3800000000001" y="2555" width="497.5" height="105" as="geometry" />
        </mxCell>
        <mxCell id="PNd0fnLT567p1pSeuQi6-11" value="Request Message" style="text;strokeColor=#36393d;fillColor=#ffff88;html=1;fontSize=35;fontStyle=1;verticalAlign=middle;align=center;rounded=1;" parent="1" vertex="1">
          <mxGeometry x="-318.75" y="3150" width="497.5" height="70" as="geometry" />
        </mxCell>
        <mxCell id="PNd0fnLT567p1pSeuQi6-12" value="Response Message" style="text;strokeColor=#36393d;fillColor=#ffff88;html=1;fontSize=35;fontStyle=1;verticalAlign=middle;align=center;rounded=1;" parent="1" vertex="1">
          <mxGeometry x="768.13" y="3150" width="497.5" height="70" as="geometry" />
        </mxCell>
        <mxCell id="PNd0fnLT567p1pSeuQi6-13" value="Empty Line (A blank Line)" style="text;strokeColor=#36393d;fillColor=#eeeeee;html=1;fontSize=30;fontStyle=1;verticalAlign=middle;align=center;rounded=1;" parent="1" vertex="1">
          <mxGeometry x="764.38" y="2695" width="497.5" height="105" as="geometry" />
        </mxCell>
        <mxCell id="PNd0fnLT567p1pSeuQi6-14" value="卡码笔记：https://notes.kamacoder.com" style="text;strokeColor=none;fillColor=none;html=1;fontSize=30;fontStyle=1;verticalAlign=middle;align=center;rounded=0;shadow=1;sketch=0;rotation=0;" parent="1" vertex="1">
          <mxGeometry x="910" y="3220" width="598" height="75" as="geometry" />
        </mxCell>
        <mxCell id="PNd0fnLT567p1pSeuQi6-15" value="卡码笔记" style="text;strokeColor=none;fillColor=none;html=1;fontSize=35;fontStyle=1;verticalAlign=middle;align=center;rounded=0;shadow=1;sketch=0;rotation=-15;textOpacity=20;" parent="1" vertex="1">
          <mxGeometry x="-56" y="2710" width="146" height="75" as="geometry" />
        </mxCell>
        <mxCell id="PNd0fnLT567p1pSeuQi6-17" value="卡码笔记" style="text;strokeColor=none;fillColor=none;html=1;fontSize=35;fontStyle=1;verticalAlign=middle;align=center;rounded=0;shadow=1;sketch=0;rotation=-15;textOpacity=20;" parent="1" vertex="1">
          <mxGeometry x="735" y="2635" width="146" height="75" as="geometry" />
        </mxCell>
        <mxCell id="PNd0fnLT567p1pSeuQi6-18" value="卡码笔记" style="text;strokeColor=none;fillColor=none;html=1;fontSize=35;fontStyle=1;verticalAlign=middle;align=center;rounded=0;shadow=1;sketch=0;rotation=-15;textOpacity=20;" parent="1" vertex="1">
          <mxGeometry x="1190" y="2380" width="146" height="75" as="geometry" />
        </mxCell>
        <mxCell id="PNd0fnLT567p1pSeuQi6-19" value="卡码笔记" style="text;strokeColor=none;fillColor=none;html=1;fontSize=35;fontStyle=1;verticalAlign=middle;align=center;rounded=0;shadow=1;sketch=0;rotation=-15;textOpacity=20;" parent="1" vertex="1">
          <mxGeometry x="1149" y="3005" width="146" height="75" as="geometry" />
        </mxCell>
        <mxCell id="PNd0fnLT567p1pSeuQi6-20" value="卡码笔记" style="text;strokeColor=none;fillColor=none;html=1;fontSize=35;fontStyle=1;verticalAlign=middle;align=center;rounded=0;shadow=1;sketch=0;rotation=-15;textOpacity=20;" parent="1" vertex="1">
          <mxGeometry y="3005" width="146" height="75" as="geometry" />
        </mxCell>
        <mxCell id="NydCjZPw2G8oa4ukXXsM-1" value="" style="rounded=1;whiteSpace=wrap;html=1;strokeWidth=2;fillWeight=4;hachureGap=8;hachureAngle=45;fillColor=#1ba1e2;sketch=1;labelBackgroundColor=#ffffff;" parent="1" vertex="1">
          <mxGeometry x="-260" y="2100" width="1550" height="60" as="geometry" />
        </mxCell>
        <mxCell id="NydCjZPw2G8oa4ukXXsM-2" value="六、应用层" style="text;strokeColor=none;fillColor=none;html=1;fontSize=40;fontStyle=1;verticalAlign=middle;align=center;labelBackgroundColor=#ffffff;" parent="1" vertex="1">
          <mxGeometry x="-270" y="2030" width="235" height="40" as="geometry" />
        </mxCell>
        <mxCell id="NydCjZPw2G8oa4ukXXsM-3" value="HTTP请求方式有哪些？" style="text;strokeColor=#36393d;fillColor=#ffcccc;html=1;fontSize=35;fontStyle=1;verticalAlign=middle;align=center;" parent="1" vertex="1">
          <mxGeometry x="-490" y="3902" width="414" height="103" as="geometry" />
        </mxCell>
        <mxCell id="NydCjZPw2G8oa4ukXXsM-14" style="edgeStyle=orthogonalEdgeStyle;rounded=0;orthogonalLoop=1;jettySize=auto;html=1;exitX=0.5;exitY=1;exitDx=0;exitDy=0;entryX=0.5;entryY=0;entryDx=0;entryDy=0;strokeWidth=3;fontSize=35;" parent="1" source="NydCjZPw2G8oa4ukXXsM-4" target="NydCjZPw2G8oa4ukXXsM-9" edge="1">
          <mxGeometry relative="1" as="geometry" />
        </mxCell>
        <mxCell id="NydCjZPw2G8oa4ukXXsM-19" value="" style="edgeStyle=orthogonalEdgeStyle;rounded=0;orthogonalLoop=1;jettySize=auto;html=1;strokeWidth=3;fontSize=35;shape=link;" parent="1" source="NydCjZPw2G8oa4ukXXsM-4" target="NydCjZPw2G8oa4ukXXsM-18" edge="1">
          <mxGeometry relative="1" as="geometry" />
        </mxCell>
        <mxCell id="NydCjZPw2G8oa4ukXXsM-4" value="HTTP/1.0 (RFC 1945)" style="text;strokeColor=#36393d;fillColor=#cce5ff;html=1;fontSize=35;fontStyle=1;verticalAlign=middle;align=center;" parent="1" vertex="1">
          <mxGeometry x="40" y="3510" width="382" height="103" as="geometry" />
        </mxCell>
        <mxCell id="NydCjZPw2G8oa4ukXXsM-18" value="GET, POST, HEAD" style="text;strokeColor=#36393d;fillColor=#cce5ff;html=1;fontSize=35;fontStyle=1;verticalAlign=middle;align=center;" parent="1" vertex="1">
          <mxGeometry x="603" y="3510" width="382" height="103" as="geometry" />
        </mxCell>
        <mxCell id="NydCjZPw2G8oa4ukXXsM-13" style="edgeStyle=orthogonalEdgeStyle;rounded=0;orthogonalLoop=1;jettySize=auto;html=1;exitX=0.75;exitY=1;exitDx=0;exitDy=0;entryX=0.75;entryY=0;entryDx=0;entryDy=0;fontSize=35;strokeWidth=3;shape=link;strokeColor=#2D0DFF;shadow=1;" parent="1" source="NydCjZPw2G8oa4ukXXsM-9" target="NydCjZPw2G8oa4ukXXsM-10" edge="1">
          <mxGeometry relative="1" as="geometry" />
        </mxCell>
        <mxCell id="NydCjZPw2G8oa4ukXXsM-15" style="edgeStyle=orthogonalEdgeStyle;rounded=0;orthogonalLoop=1;jettySize=auto;html=1;exitX=0.5;exitY=1;exitDx=0;exitDy=0;strokeWidth=3;fontSize=35;" parent="1" source="NydCjZPw2G8oa4ukXXsM-9" target="NydCjZPw2G8oa4ukXXsM-10" edge="1">
          <mxGeometry relative="1" as="geometry" />
        </mxCell>
        <mxCell id="NydCjZPw2G8oa4ukXXsM-21" value="" style="edgeStyle=orthogonalEdgeStyle;shape=link;rounded=0;orthogonalLoop=1;jettySize=auto;html=1;strokeWidth=3;fontSize=35;" parent="1" source="NydCjZPw2G8oa4ukXXsM-9" target="NydCjZPw2G8oa4ukXXsM-20" edge="1">
          <mxGeometry relative="1" as="geometry" />
        </mxCell>
        <mxCell id="NydCjZPw2G8oa4ukXXsM-9" value="HTTP/1.1 (RFC 2616)" style="text;strokeColor=#36393d;fillColor=#cce5ff;html=1;fontSize=35;fontStyle=1;verticalAlign=middle;align=center;" parent="1" vertex="1">
          <mxGeometry x="40" y="3706" width="382" height="103" as="geometry" />
        </mxCell>
        <mxCell id="NydCjZPw2G8oa4ukXXsM-20" value="GET, POST, HEAD, PUT, DELETE, OPTIONS, TRACE, CONNECT" style="text;strokeColor=#36393d;fillColor=#cce5ff;html=1;fontSize=35;fontStyle=1;verticalAlign=middle;align=center;" parent="1" vertex="1">
          <mxGeometry x="601" y="3706" width="1134" height="103" as="geometry" />
        </mxCell>
        <mxCell id="NydCjZPw2G8oa4ukXXsM-16" style="edgeStyle=orthogonalEdgeStyle;rounded=0;orthogonalLoop=1;jettySize=auto;html=1;exitX=0.5;exitY=1;exitDx=0;exitDy=0;strokeWidth=3;fontSize=35;" parent="1" source="NydCjZPw2G8oa4ukXXsM-10" target="NydCjZPw2G8oa4ukXXsM-12" edge="1">
          <mxGeometry relative="1" as="geometry" />
        </mxCell>
        <mxCell id="NydCjZPw2G8oa4ukXXsM-30" value="" style="edgeStyle=orthogonalEdgeStyle;curved=1;rounded=0;orthogonalLoop=1;jettySize=auto;html=1;shadow=0;strokeColor=#000000;strokeWidth=3;fontSize=35;shape=link;" parent="1" source="NydCjZPw2G8oa4ukXXsM-10" target="NydCjZPw2G8oa4ukXXsM-29" edge="1">
          <mxGeometry relative="1" as="geometry" />
        </mxCell>
        <mxCell id="NydCjZPw2G8oa4ukXXsM-10" value="HTTP/1.1 (RFC 7231)" style="text;strokeColor=#36393d;fillColor=#cce5ff;html=1;fontSize=35;fontStyle=1;verticalAlign=middle;align=center;" parent="1" vertex="1">
          <mxGeometry x="40" y="3902" width="382" height="103" as="geometry" />
        </mxCell>
        <mxCell id="NydCjZPw2G8oa4ukXXsM-32" value="" style="edgeStyle=orthogonalEdgeStyle;shape=link;curved=1;rounded=0;orthogonalLoop=1;jettySize=auto;html=1;shadow=0;strokeColor=#000000;strokeWidth=3;fontSize=35;" parent="1" source="NydCjZPw2G8oa4ukXXsM-29" target="NydCjZPw2G8oa4ukXXsM-31" edge="1">
          <mxGeometry relative="1" as="geometry" />
        </mxCell>
        <mxCell id="NydCjZPw2G8oa4ukXXsM-29" value="同上" style="text;strokeColor=#36393d;fillColor=#cce5ff;html=1;fontSize=35;fontStyle=1;verticalAlign=middle;align=center;" parent="1" vertex="1">
          <mxGeometry x="601" y="3902" width="130" height="103" as="geometry" />
        </mxCell>
        <mxCell id="NydCjZPw2G8oa4ukXXsM-31" value="HTTP/1.1的缺点：&lt;br&gt;1. 明文传输（文本协议）；&lt;br&gt;2. 队头阻塞（按顺序处理请求）；&lt;br&gt;3. 高延迟（多次TCP握手）。" style="text;strokeColor=#36393d;fillColor=#ffff88;html=1;fontSize=35;fontStyle=1;verticalAlign=top;align=left;" parent="1" vertex="1">
          <mxGeometry x="914" y="3859.25" width="629" height="188.5" as="geometry" />
        </mxCell>
        <mxCell id="NydCjZPw2G8oa4ukXXsM-36" value="" style="edgeStyle=orthogonalEdgeStyle;shape=link;curved=1;rounded=0;orthogonalLoop=1;jettySize=auto;html=1;shadow=0;strokeColor=#000000;strokeWidth=3;fontSize=35;" parent="1" source="NydCjZPw2G8oa4ukXXsM-11" target="NydCjZPw2G8oa4ukXXsM-35" edge="1">
          <mxGeometry relative="1" as="geometry" />
        </mxCell>
        <mxCell id="NydCjZPw2G8oa4ukXXsM-11" value="HTTP/3 (RFC 9114)" style="text;strokeColor=#36393d;fillColor=#cce5ff;html=1;fontSize=35;fontStyle=1;verticalAlign=middle;align=center;" parent="1" vertex="1">
          <mxGeometry x="40" y="4296" width="382" height="103" as="geometry" />
        </mxCell>
        <mxCell id="NydCjZPw2G8oa4ukXXsM-40" value="" style="edgeStyle=orthogonalEdgeStyle;shape=link;curved=1;rounded=0;orthogonalLoop=1;jettySize=auto;html=1;shadow=0;strokeColor=#000000;strokeWidth=3;fontSize=35;" parent="1" source="NydCjZPw2G8oa4ukXXsM-35" target="NydCjZPw2G8oa4ukXXsM-39" edge="1">
          <mxGeometry relative="1" as="geometry" />
        </mxCell>
        <mxCell id="NydCjZPw2G8oa4ukXXsM-35" value="同上，也兼容" style="text;strokeColor=#36393d;fillColor=#cce5ff;html=1;fontSize=35;fontStyle=1;verticalAlign=middle;align=center;" parent="1" vertex="1">
          <mxGeometry x="601" y="4296" width="262" height="103" as="geometry" />
        </mxCell>
        <mxCell id="NydCjZPw2G8oa4ukXXsM-39" value="HTTP/3的核心改进：&lt;br&gt;1. 传输层协议；2. 0-RTT连接。" style="text;strokeColor=#36393d;fillColor=#ffff88;html=1;fontSize=35;fontStyle=1;verticalAlign=top;align=left;" parent="1" vertex="1">
          <mxGeometry x="970" y="4296" width="510" height="103" as="geometry" />
        </mxCell>
        <mxCell id="NydCjZPw2G8oa4ukXXsM-17" style="edgeStyle=orthogonalEdgeStyle;rounded=0;orthogonalLoop=1;jettySize=auto;html=1;exitX=0.5;exitY=1;exitDx=0;exitDy=0;strokeWidth=3;fontSize=35;" parent="1" source="NydCjZPw2G8oa4ukXXsM-12" target="NydCjZPw2G8oa4ukXXsM-11" edge="1">
          <mxGeometry relative="1" as="geometry" />
        </mxCell>
        <mxCell id="NydCjZPw2G8oa4ukXXsM-34" value="" style="edgeStyle=orthogonalEdgeStyle;shape=link;curved=1;rounded=0;orthogonalLoop=1;jettySize=auto;html=1;shadow=0;strokeColor=#000000;strokeWidth=3;fontSize=35;" parent="1" source="NydCjZPw2G8oa4ukXXsM-12" target="NydCjZPw2G8oa4ukXXsM-33" edge="1">
          <mxGeometry relative="1" as="geometry" />
        </mxCell>
        <mxCell id="NydCjZPw2G8oa4ukXXsM-12" value="HTTP/2 (RFC 7540)" style="text;strokeColor=#36393d;fillColor=#cce5ff;html=1;fontSize=35;fontStyle=1;verticalAlign=middle;align=center;" parent="1" vertex="1">
          <mxGeometry x="40" y="4099" width="382" height="103" as="geometry" />
        </mxCell>
        <mxCell id="NydCjZPw2G8oa4ukXXsM-38" style="edgeStyle=orthogonalEdgeStyle;shape=link;curved=1;rounded=0;orthogonalLoop=1;jettySize=auto;html=1;exitX=1;exitY=0.5;exitDx=0;exitDy=0;entryX=0;entryY=0.5;entryDx=0;entryDy=0;shadow=0;strokeColor=#000000;strokeWidth=3;fontSize=35;" parent="1" source="NydCjZPw2G8oa4ukXXsM-33" target="NydCjZPw2G8oa4ukXXsM-37" edge="1">
          <mxGeometry relative="1" as="geometry" />
        </mxCell>
        <mxCell id="NydCjZPw2G8oa4ukXXsM-33" value="同上，兼容HTTP/1.1" style="text;strokeColor=#36393d;fillColor=#cce5ff;html=1;fontSize=35;fontStyle=1;verticalAlign=middle;align=center;" parent="1" vertex="1">
          <mxGeometry x="601" y="4099" width="382" height="103" as="geometry" />
        </mxCell>
        <mxCell id="NydCjZPw2G8oa4ukXXsM-27" value="" style="shape=curlyBracket;whiteSpace=wrap;html=1;rounded=1;fontSize=35;strokeWidth=3;sketch=0;shadow=1;" parent="1" vertex="1">
          <mxGeometry x="-79" y="3557" width="114" height="792" as="geometry" />
        </mxCell>
        <mxCell id="NydCjZPw2G8oa4ukXXsM-37" value="HTTP/2的核心改进：&lt;br&gt;1. 二进制分帧；2. 多路复用；3. 头部压缩；&lt;br&gt;4. 服务器推送。" style="text;strokeColor=#36393d;fillColor=#ffff88;html=1;fontSize=35;fontStyle=1;verticalAlign=top;align=left;" parent="1" vertex="1">
          <mxGeometry x="1088" y="4082.5" width="692" height="136" as="geometry" />
        </mxCell>
        <mxCell id="NydCjZPw2G8oa4ukXXsM-42" value="卡码笔记" style="text;strokeColor=none;fillColor=none;html=1;fontSize=35;fontStyle=1;verticalAlign=middle;align=center;rounded=0;shadow=1;sketch=0;rotation=-15;textOpacity=20;" parent="1" vertex="1">
          <mxGeometry x="152" y="4073" width="146" height="75" as="geometry" />
        </mxCell>
        <mxCell id="NydCjZPw2G8oa4ukXXsM-43" value="卡码笔记：https://notes.kamacoder.com" style="text;strokeColor=none;fillColor=none;html=1;fontSize=30;fontStyle=1;verticalAlign=middle;align=center;rounded=0;shadow=1;sketch=0;rotation=0;" parent="1" vertex="1">
          <mxGeometry x="1193" y="4399" width="598" height="75" as="geometry" />
        </mxCell>
        <mxCell id="NydCjZPw2G8oa4ukXXsM-44" value="卡码笔记" style="text;strokeColor=none;fillColor=none;html=1;fontSize=35;fontStyle=1;verticalAlign=middle;align=center;rounded=0;shadow=1;sketch=0;rotation=-15;textOpacity=20;" parent="1" vertex="1">
          <mxGeometry x="-510" y="3912" width="146" height="75" as="geometry" />
        </mxCell>
        <mxCell id="NydCjZPw2G8oa4ukXXsM-45" value="卡码笔记" style="text;strokeColor=none;fillColor=none;html=1;fontSize=35;fontStyle=1;verticalAlign=middle;align=center;rounded=0;shadow=1;sketch=0;rotation=-15;textOpacity=20;" parent="1" vertex="1">
          <mxGeometry x="645" y="3715" width="146" height="75" as="geometry" />
        </mxCell>
        <mxCell id="NydCjZPw2G8oa4ukXXsM-46" value="卡码笔记" style="text;strokeColor=none;fillColor=none;html=1;fontSize=35;fontStyle=1;verticalAlign=middle;align=center;rounded=0;shadow=1;sketch=0;rotation=-15;textOpacity=20;" parent="1" vertex="1">
          <mxGeometry x="640" y="4314" width="146" height="75" as="geometry" />
        </mxCell>
        <mxCell id="NydCjZPw2G8oa4ukXXsM-47" value="卡码笔记" style="text;strokeColor=none;fillColor=none;html=1;fontSize=35;fontStyle=1;verticalAlign=middle;align=center;rounded=0;shadow=1;sketch=0;rotation=-15;textOpacity=20;" parent="1" vertex="1">
          <mxGeometry x="1645" y="4134" width="146" height="75" as="geometry" />
        </mxCell>
        <mxCell id="PurhWnnzGo2VnZS157Xb-1" value="The difference between GET and POST request methods" style="text;strokeColor=#666666;fillColor=#f5f5f5;html=1;fontSize=40;fontStyle=1;verticalAlign=middle;align=center;gradientColor=#b3b3b3;" parent="1" vertex="1">
          <mxGeometry x="-419" y="4709" width="2033" height="85" as="geometry" />
        </mxCell>
        <mxCell id="PurhWnnzGo2VnZS157Xb-2" value="GET" style="text;strokeColor=#36393d;fillColor=#cce5ff;html=1;fontSize=40;fontStyle=1;verticalAlign=middle;align=center;" parent="1" vertex="1">
          <mxGeometry x="-114" y="4841" width="206" height="102" as="geometry" />
        </mxCell>
        <mxCell id="PurhWnnzGo2VnZS157Xb-55" style="rounded=0;orthogonalLoop=1;jettySize=auto;html=1;exitX=0;exitY=0.5;exitDx=0;exitDy=0;strokeWidth=3;fontSize=30;shape=link;" parent="1" source="PurhWnnzGo2VnZS157Xb-4" target="PurhWnnzGo2VnZS157Xb-14" edge="1">
          <mxGeometry relative="1" as="geometry" />
        </mxCell>
        <mxCell id="PurhWnnzGo2VnZS157Xb-56" style="edgeStyle=none;shape=link;rounded=0;orthogonalLoop=1;jettySize=auto;html=1;exitX=1;exitY=0.5;exitDx=0;exitDy=0;strokeWidth=3;fontSize=30;" parent="1" source="PurhWnnzGo2VnZS157Xb-4" target="PurhWnnzGo2VnZS157Xb-29" edge="1">
          <mxGeometry relative="1" as="geometry" />
        </mxCell>
        <mxCell id="PurhWnnzGo2VnZS157Xb-4" value="Purpose" style="text;strokeColor=#b85450;fillColor=#f8cecc;html=1;fontSize=35;fontStyle=1;verticalAlign=middle;align=center;rounded=1;gradientColor=#ea6b66;" parent="1" vertex="1">
          <mxGeometry x="443" y="5006" width="218" height="79" as="geometry" />
        </mxCell>
        <mxCell id="PurhWnnzGo2VnZS157Xb-6" value="POST" style="text;strokeColor=#36393d;fillColor=#cce5ff;html=1;fontSize=40;fontStyle=1;verticalAlign=middle;align=center;" parent="1" vertex="1">
          <mxGeometry x="1009" y="4841" width="206" height="102" as="geometry" />
        </mxCell>
        <mxCell id="PurhWnnzGo2VnZS157Xb-57" style="edgeStyle=none;shape=link;rounded=0;orthogonalLoop=1;jettySize=auto;html=1;exitX=0;exitY=0.5;exitDx=0;exitDy=0;strokeWidth=3;fontSize=30;" parent="1" source="PurhWnnzGo2VnZS157Xb-7" target="PurhWnnzGo2VnZS157Xb-16" edge="1">
          <mxGeometry relative="1" as="geometry" />
        </mxCell>
        <mxCell id="PurhWnnzGo2VnZS157Xb-58" style="edgeStyle=none;shape=link;rounded=0;orthogonalLoop=1;jettySize=auto;html=1;exitX=1;exitY=0.5;exitDx=0;exitDy=0;strokeWidth=3;fontSize=30;" parent="1" source="PurhWnnzGo2VnZS157Xb-7" target="PurhWnnzGo2VnZS157Xb-31" edge="1">
          <mxGeometry relative="1" as="geometry" />
        </mxCell>
        <mxCell id="PurhWnnzGo2VnZS157Xb-7" value="Data transmission method" style="text;strokeColor=#b85450;fillColor=#f8cecc;html=1;fontSize=30;fontStyle=1;verticalAlign=middle;align=center;rounded=1;gradientColor=#ea6b66;" parent="1" vertex="1">
          <mxGeometry x="349.25" y="5112" width="405.5" height="83" as="geometry" />
        </mxCell>
        <mxCell id="PurhWnnzGo2VnZS157Xb-59" style="edgeStyle=none;shape=link;rounded=0;orthogonalLoop=1;jettySize=auto;html=1;exitX=0;exitY=0.5;exitDx=0;exitDy=0;strokeWidth=3;fontSize=30;" parent="1" source="PurhWnnzGo2VnZS157Xb-8" target="PurhWnnzGo2VnZS157Xb-18" edge="1">
          <mxGeometry relative="1" as="geometry" />
        </mxCell>
        <mxCell id="PurhWnnzGo2VnZS157Xb-60" style="edgeStyle=none;shape=link;rounded=0;orthogonalLoop=1;jettySize=auto;html=1;exitX=1;exitY=0.5;exitDx=0;exitDy=0;strokeWidth=3;fontSize=30;" parent="1" source="PurhWnnzGo2VnZS157Xb-8" target="PurhWnnzGo2VnZS157Xb-33" edge="1">
          <mxGeometry relative="1" as="geometry" />
        </mxCell>
        <mxCell id="PurhWnnzGo2VnZS157Xb-8" value="Data size limit" style="text;strokeColor=#b85450;fillColor=#f8cecc;html=1;fontSize=30;fontStyle=1;verticalAlign=middle;align=center;rounded=1;gradientColor=#ea6b66;" parent="1" vertex="1">
          <mxGeometry x="425" y="5224" width="254" height="79" as="geometry" />
        </mxCell>
        <mxCell id="PurhWnnzGo2VnZS157Xb-61" style="edgeStyle=none;shape=link;rounded=0;orthogonalLoop=1;jettySize=auto;html=1;exitX=0;exitY=0.5;exitDx=0;exitDy=0;strokeWidth=3;fontSize=30;" parent="1" source="PurhWnnzGo2VnZS157Xb-9" target="PurhWnnzGo2VnZS157Xb-20" edge="1">
          <mxGeometry relative="1" as="geometry" />
        </mxCell>
        <mxCell id="PurhWnnzGo2VnZS157Xb-62" style="edgeStyle=none;shape=link;rounded=0;orthogonalLoop=1;jettySize=auto;html=1;exitX=1;exitY=0.5;exitDx=0;exitDy=0;strokeWidth=3;fontSize=30;" parent="1" source="PurhWnnzGo2VnZS157Xb-9" target="PurhWnnzGo2VnZS157Xb-35" edge="1">
          <mxGeometry relative="1" as="geometry" />
        </mxCell>
        <mxCell id="PurhWnnzGo2VnZS157Xb-9" value="Security" style="text;strokeColor=#b85450;fillColor=#f8cecc;html=1;fontSize=35;fontStyle=1;verticalAlign=middle;align=center;rounded=1;gradientColor=#ea6b66;" parent="1" vertex="1">
          <mxGeometry x="443" y="5332" width="218" height="79" as="geometry" />
        </mxCell>
        <mxCell id="PurhWnnzGo2VnZS157Xb-63" style="edgeStyle=none;shape=link;rounded=0;orthogonalLoop=1;jettySize=auto;html=1;exitX=0;exitY=0.5;exitDx=0;exitDy=0;strokeWidth=3;fontSize=30;" parent="1" source="PurhWnnzGo2VnZS157Xb-10" target="PurhWnnzGo2VnZS157Xb-22" edge="1">
          <mxGeometry relative="1" as="geometry" />
        </mxCell>
        <mxCell id="PurhWnnzGo2VnZS157Xb-64" style="edgeStyle=none;shape=link;rounded=0;orthogonalLoop=1;jettySize=auto;html=1;exitX=1;exitY=0.5;exitDx=0;exitDy=0;strokeWidth=3;fontSize=30;" parent="1" source="PurhWnnzGo2VnZS157Xb-10" target="PurhWnnzGo2VnZS157Xb-37" edge="1">
          <mxGeometry relative="1" as="geometry" />
        </mxCell>
        <mxCell id="PurhWnnzGo2VnZS157Xb-10" value="Caching" style="text;strokeColor=#b85450;fillColor=#f8cecc;html=1;fontSize=35;fontStyle=1;verticalAlign=middle;align=center;rounded=1;gradientColor=#ea6b66;" parent="1" vertex="1">
          <mxGeometry x="443" y="5441" width="218" height="79" as="geometry" />
        </mxCell>
        <mxCell id="PurhWnnzGo2VnZS157Xb-66" style="edgeStyle=none;shape=link;rounded=0;orthogonalLoop=1;jettySize=auto;html=1;exitX=0;exitY=0.5;exitDx=0;exitDy=0;strokeWidth=3;fontSize=30;" parent="1" source="PurhWnnzGo2VnZS157Xb-11" target="PurhWnnzGo2VnZS157Xb-24" edge="1">
          <mxGeometry relative="1" as="geometry" />
        </mxCell>
        <mxCell id="PurhWnnzGo2VnZS157Xb-67" style="edgeStyle=none;shape=link;rounded=0;orthogonalLoop=1;jettySize=auto;html=1;exitX=1;exitY=0.5;exitDx=0;exitDy=0;strokeWidth=3;fontSize=30;" parent="1" source="PurhWnnzGo2VnZS157Xb-11" target="PurhWnnzGo2VnZS157Xb-39" edge="1">
          <mxGeometry relative="1" as="geometry" />
        </mxCell>
        <mxCell id="PurhWnnzGo2VnZS157Xb-11" value="Idempotency" style="text;strokeColor=#b85450;fillColor=#f8cecc;html=1;fontSize=35;fontStyle=1;verticalAlign=middle;align=center;rounded=1;gradientColor=#ea6b66;" parent="1" vertex="1">
          <mxGeometry x="409.5" y="5550" width="285" height="79" as="geometry" />
        </mxCell>
        <mxCell id="PurhWnnzGo2VnZS157Xb-68" style="edgeStyle=none;shape=link;rounded=0;orthogonalLoop=1;jettySize=auto;html=1;exitX=0;exitY=0.5;exitDx=0;exitDy=0;strokeWidth=3;fontSize=30;" parent="1" source="PurhWnnzGo2VnZS157Xb-12" target="PurhWnnzGo2VnZS157Xb-26" edge="1">
          <mxGeometry relative="1" as="geometry" />
        </mxCell>
        <mxCell id="PurhWnnzGo2VnZS157Xb-69" style="edgeStyle=none;shape=link;rounded=0;orthogonalLoop=1;jettySize=auto;html=1;exitX=1;exitY=0.5;exitDx=0;exitDy=0;strokeWidth=3;fontSize=30;" parent="1" source="PurhWnnzGo2VnZS157Xb-12" target="PurhWnnzGo2VnZS157Xb-41" edge="1">
          <mxGeometry relative="1" as="geometry" />
        </mxCell>
        <mxCell id="PurhWnnzGo2VnZS157Xb-12" value="Content-Type" style="text;strokeColor=#b85450;fillColor=#f8cecc;html=1;fontSize=35;fontStyle=1;verticalAlign=middle;align=center;rounded=1;gradientColor=#ea6b66;" parent="1" vertex="1">
          <mxGeometry x="424.5" y="5659" width="255" height="79" as="geometry" />
        </mxCell>
        <mxCell id="PurhWnnzGo2VnZS157Xb-72" value="卡码笔记" style="text;strokeColor=none;fillColor=none;html=1;fontSize=35;fontStyle=1;verticalAlign=middle;align=center;rounded=0;shadow=1;sketch=0;rotation=-15;textOpacity=20;opacity=50;" parent="1" vertex="1">
          <mxGeometry x="730" y="4727" width="146" height="75" as="geometry" />
        </mxCell>
        <mxCell id="PurhWnnzGo2VnZS157Xb-73" value="卡码笔记：https://notes.kamacoder.com" style="text;strokeColor=none;fillColor=none;html=1;fontSize=30;fontStyle=1;verticalAlign=middle;align=center;rounded=0;shadow=1;sketch=0;rotation=0;opacity=50;" parent="1" vertex="1">
          <mxGeometry x="1079" y="5754" width="598" height="75" as="geometry" />
        </mxCell>
        <mxCell id="PurhWnnzGo2VnZS157Xb-74" value="卡码笔记" style="text;strokeColor=none;fillColor=none;html=1;fontSize=35;fontStyle=1;verticalAlign=middle;align=center;rounded=0;shadow=1;sketch=0;rotation=-15;textOpacity=20;opacity=50;" parent="1" vertex="1">
          <mxGeometry x="-103" y="5010" width="146" height="75" as="geometry" />
        </mxCell>
        <mxCell id="PurhWnnzGo2VnZS157Xb-75" value="卡码笔记" style="text;strokeColor=none;fillColor=none;html=1;fontSize=35;fontStyle=1;verticalAlign=middle;align=center;rounded=0;shadow=1;sketch=0;rotation=-15;textOpacity=20;opacity=50;" parent="1" vertex="1">
          <mxGeometry x="1079" y="4857" width="146" height="75" as="geometry" />
        </mxCell>
        <mxCell id="PurhWnnzGo2VnZS157Xb-76" value="卡码笔记" style="text;strokeColor=none;fillColor=none;html=1;fontSize=35;fontStyle=1;verticalAlign=middle;align=center;rounded=0;shadow=1;sketch=0;rotation=-15;textOpacity=20;opacity=50;" parent="1" vertex="1">
          <mxGeometry x="1125" y="5441" width="146" height="75" as="geometry" />
        </mxCell>
        <mxCell id="PurhWnnzGo2VnZS157Xb-77" value="卡码笔记" style="text;strokeColor=none;fillColor=none;html=1;fontSize=35;fontStyle=1;verticalAlign=middle;align=center;rounded=0;shadow=1;sketch=0;rotation=-15;textOpacity=20;opacity=50;" parent="1" vertex="1">
          <mxGeometry x="407" y="5652" width="146" height="75" as="geometry" />
        </mxCell>
        <mxCell id="s4eQD-G11fO3ZMLgUpAx-1" value="Ten Most Frequently Asked HTTP Status Codes in Interviews" style="text;strokeColor=#666666;fillColor=#f5f5f5;html=1;fontSize=40;fontStyle=1;verticalAlign=middle;align=center;gradientColor=#b3b3b3;rounded=1;strokeWidth=2;shadow=1;sketch=1;" parent="1" vertex="1">
          <mxGeometry x="-412" y="6190" width="2033" height="85" as="geometry" />
        </mxCell>
        <mxCell id="PurhWnnzGo2VnZS157Xb-13" value="" style="shape=table;html=1;whiteSpace=wrap;startSize=0;container=1;collapsible=0;childLayout=tableLayout;fontSize=33;fontStyle=1" parent="1" vertex="1">
          <mxGeometry x="-238.5" y="4990" width="455" height="758" as="geometry" />
        </mxCell>
        <mxCell id="PurhWnnzGo2VnZS157Xb-14" value="" style="shape=partialRectangle;html=1;whiteSpace=wrap;collapsible=0;dropTarget=0;pointerEvents=0;fillColor=none;top=0;left=0;bottom=0;right=0;points=[[0,0.5],[1,0.5]];portConstraint=eastwest;fontSize=33;fontStyle=1" parent="PurhWnnzGo2VnZS157Xb-13" vertex="1">
          <mxGeometry width="455" height="109" as="geometry" />
        </mxCell>
        <mxCell id="PurhWnnzGo2VnZS157Xb-15" value="从服务器获取资源" style="shape=partialRectangle;html=1;whiteSpace=wrap;connectable=0;overflow=hidden;fillColor=none;top=0;left=0;bottom=0;right=0;fontSize=33;fontStyle=1" parent="PurhWnnzGo2VnZS157Xb-14" vertex="1">
          <mxGeometry width="455" height="109" as="geometry" />
        </mxCell>
        <mxCell id="PurhWnnzGo2VnZS157Xb-16" value="" style="shape=partialRectangle;html=1;whiteSpace=wrap;collapsible=0;dropTarget=0;pointerEvents=0;fillColor=none;top=0;left=0;bottom=0;right=0;points=[[0,0.5],[1,0.5]];portConstraint=eastwest;fontSize=33;fontStyle=1" parent="PurhWnnzGo2VnZS157Xb-13" vertex="1">
          <mxGeometry y="109" width="455" height="107" as="geometry" />
        </mxCell>
        <mxCell id="PurhWnnzGo2VnZS157Xb-17" value="参数附加在URL中" style="shape=partialRectangle;html=1;whiteSpace=wrap;connectable=0;overflow=hidden;fillColor=none;top=0;left=0;bottom=0;right=0;fontSize=33;fontStyle=1" parent="PurhWnnzGo2VnZS157Xb-16" vertex="1">
          <mxGeometry width="455" height="107" as="geometry" />
        </mxCell>
        <mxCell id="PurhWnnzGo2VnZS157Xb-18" value="" style="shape=partialRectangle;html=1;whiteSpace=wrap;collapsible=0;dropTarget=0;pointerEvents=0;fillColor=none;top=0;left=0;bottom=0;right=0;points=[[0,0.5],[1,0.5]];portConstraint=eastwest;fontSize=33;fontStyle=1" parent="PurhWnnzGo2VnZS157Xb-13" vertex="1">
          <mxGeometry y="216" width="455" height="109" as="geometry" />
        </mxCell>
        <mxCell id="PurhWnnzGo2VnZS157Xb-19" value="数据大小受URL长度限制" style="shape=partialRectangle;html=1;whiteSpace=wrap;connectable=0;overflow=hidden;fillColor=none;top=0;left=0;bottom=0;right=0;fontSize=33;fontStyle=1" parent="PurhWnnzGo2VnZS157Xb-18" vertex="1">
          <mxGeometry width="455" height="109" as="geometry" />
        </mxCell>
        <mxCell id="PurhWnnzGo2VnZS157Xb-20" value="" style="shape=partialRectangle;html=1;whiteSpace=wrap;collapsible=0;dropTarget=0;pointerEvents=0;fillColor=none;top=0;left=0;bottom=0;right=0;points=[[0,0.5],[1,0.5]];portConstraint=eastwest;fontSize=33;fontStyle=1" parent="PurhWnnzGo2VnZS157Xb-13" vertex="1">
          <mxGeometry y="325" width="455" height="108" as="geometry" />
        </mxCell>
        <mxCell id="PurhWnnzGo2VnZS157Xb-21" value="参数暴露，不安全" style="shape=partialRectangle;html=1;whiteSpace=wrap;connectable=0;overflow=hidden;fillColor=none;top=0;left=0;bottom=0;right=0;fontSize=33;fontStyle=1" parent="PurhWnnzGo2VnZS157Xb-20" vertex="1">
          <mxGeometry width="455" height="108" as="geometry" />
        </mxCell>
        <mxCell id="PurhWnnzGo2VnZS157Xb-22" value="" style="shape=partialRectangle;html=1;whiteSpace=wrap;collapsible=0;dropTarget=0;pointerEvents=0;fillColor=none;top=0;left=0;bottom=0;right=0;points=[[0,0.5],[1,0.5]];portConstraint=eastwest;fontSize=33;fontStyle=1" parent="PurhWnnzGo2VnZS157Xb-13" vertex="1">
          <mxGeometry y="433" width="455" height="109" as="geometry" />
        </mxCell>
        <mxCell id="PurhWnnzGo2VnZS157Xb-23" value="可以被浏览器或中间代理&lt;br&gt;服务器缓存" style="shape=partialRectangle;html=1;whiteSpace=wrap;connectable=0;overflow=hidden;fillColor=none;top=0;left=0;bottom=0;right=0;fontSize=33;fontStyle=1" parent="PurhWnnzGo2VnZS157Xb-22" vertex="1">
          <mxGeometry width="455" height="109" as="geometry" />
        </mxCell>
        <mxCell id="PurhWnnzGo2VnZS157Xb-24" value="" style="shape=partialRectangle;html=1;whiteSpace=wrap;collapsible=0;dropTarget=0;pointerEvents=0;fillColor=none;top=0;left=0;bottom=0;right=0;points=[[0,0.5],[1,0.5]];portConstraint=eastwest;fontSize=33;fontStyle=1" parent="PurhWnnzGo2VnZS157Xb-13" vertex="1">
          <mxGeometry y="542" width="455" height="107" as="geometry" />
        </mxCell>
        <mxCell id="PurhWnnzGo2VnZS157Xb-25" value="幂等" style="shape=partialRectangle;html=1;whiteSpace=wrap;connectable=0;overflow=hidden;fillColor=none;top=0;left=0;bottom=0;right=0;fontSize=33;fontStyle=1" parent="PurhWnnzGo2VnZS157Xb-24" vertex="1">
          <mxGeometry width="455" height="107" as="geometry" />
        </mxCell>
        <mxCell id="PurhWnnzGo2VnZS157Xb-26" value="" style="shape=partialRectangle;html=1;whiteSpace=wrap;collapsible=0;dropTarget=0;pointerEvents=0;fillColor=none;top=0;left=0;bottom=0;right=0;points=[[0,0.5],[1,0.5]];portConstraint=eastwest;fontSize=33;fontStyle=1" parent="PurhWnnzGo2VnZS157Xb-13" vertex="1">
          <mxGeometry y="649" width="455" height="109" as="geometry" />
        </mxCell>
        <mxCell id="PurhWnnzGo2VnZS157Xb-27" value="只支持ASCII编码" style="shape=partialRectangle;html=1;whiteSpace=wrap;connectable=0;overflow=hidden;fillColor=none;top=0;left=0;bottom=0;right=0;fontSize=33;fontStyle=1" parent="PurhWnnzGo2VnZS157Xb-26" vertex="1">
          <mxGeometry width="455" height="109" as="geometry" />
        </mxCell>
        <mxCell id="PurhWnnzGo2VnZS157Xb-28" value="" style="shape=table;html=1;whiteSpace=wrap;startSize=0;container=1;collapsible=0;childLayout=tableLayout;fontSize=33;fontStyle=1" parent="1" vertex="1">
          <mxGeometry x="884.5" y="4995" width="455" height="753" as="geometry" />
        </mxCell>
        <mxCell id="PurhWnnzGo2VnZS157Xb-29" value="" style="shape=partialRectangle;html=1;whiteSpace=wrap;collapsible=0;dropTarget=0;pointerEvents=0;fillColor=none;top=0;left=0;bottom=0;right=0;points=[[0,0.5],[1,0.5]];portConstraint=eastwest;fontSize=33;fontStyle=1" parent="PurhWnnzGo2VnZS157Xb-28" vertex="1">
          <mxGeometry width="455" height="108" as="geometry" />
        </mxCell>
        <mxCell id="PurhWnnzGo2VnZS157Xb-30" value="向服务器提交数据" style="shape=partialRectangle;html=1;whiteSpace=wrap;connectable=0;overflow=hidden;fillColor=none;top=0;left=0;bottom=0;right=0;fontSize=33;fontStyle=1" parent="PurhWnnzGo2VnZS157Xb-29" vertex="1">
          <mxGeometry width="455" height="108" as="geometry" />
        </mxCell>
        <mxCell id="PurhWnnzGo2VnZS157Xb-31" value="" style="shape=partialRectangle;html=1;whiteSpace=wrap;collapsible=0;dropTarget=0;pointerEvents=0;fillColor=none;top=0;left=0;bottom=0;right=0;points=[[0,0.5],[1,0.5]];portConstraint=eastwest;fontSize=33;fontStyle=1" parent="PurhWnnzGo2VnZS157Xb-28" vertex="1">
          <mxGeometry y="108" width="455" height="107" as="geometry" />
        </mxCell>
        <mxCell id="PurhWnnzGo2VnZS157Xb-32" value="数据封装在请求体中" style="shape=partialRectangle;html=1;whiteSpace=wrap;connectable=0;overflow=hidden;fillColor=none;top=0;left=0;bottom=0;right=0;fontSize=33;fontStyle=1" parent="PurhWnnzGo2VnZS157Xb-31" vertex="1">
          <mxGeometry width="455" height="107" as="geometry" />
        </mxCell>
        <mxCell id="PurhWnnzGo2VnZS157Xb-33" value="" style="shape=partialRectangle;html=1;whiteSpace=wrap;collapsible=0;dropTarget=0;pointerEvents=0;fillColor=none;top=0;left=0;bottom=0;right=0;points=[[0,0.5],[1,0.5]];portConstraint=eastwest;fontSize=33;fontStyle=1" parent="PurhWnnzGo2VnZS157Xb-28" vertex="1">
          <mxGeometry y="215" width="455" height="108" as="geometry" />
        </mxCell>
        <mxCell id="PurhWnnzGo2VnZS157Xb-34" value="理论上无限制" style="shape=partialRectangle;html=1;whiteSpace=wrap;connectable=0;overflow=hidden;fillColor=none;top=0;left=0;bottom=0;right=0;fontSize=33;fontStyle=1" parent="PurhWnnzGo2VnZS157Xb-33" vertex="1">
          <mxGeometry width="455" height="108" as="geometry" />
        </mxCell>
        <mxCell id="PurhWnnzGo2VnZS157Xb-35" value="" style="shape=partialRectangle;html=1;whiteSpace=wrap;collapsible=0;dropTarget=0;pointerEvents=0;fillColor=none;top=0;left=0;bottom=0;right=0;points=[[0,0.5],[1,0.5]];portConstraint=eastwest;fontSize=33;fontStyle=1" parent="PurhWnnzGo2VnZS157Xb-28" vertex="1">
          <mxGeometry y="323" width="455" height="107" as="geometry" />
        </mxCell>
        <mxCell id="PurhWnnzGo2VnZS157Xb-36" value="数据不可见，相对更安全" style="shape=partialRectangle;html=1;whiteSpace=wrap;connectable=0;overflow=hidden;fillColor=none;top=0;left=0;bottom=0;right=0;fontSize=33;fontStyle=1" parent="PurhWnnzGo2VnZS157Xb-35" vertex="1">
          <mxGeometry width="455" height="107" as="geometry" />
        </mxCell>
        <mxCell id="PurhWnnzGo2VnZS157Xb-37" value="" style="shape=partialRectangle;html=1;whiteSpace=wrap;collapsible=0;dropTarget=0;pointerEvents=0;fillColor=none;top=0;left=0;bottom=0;right=0;points=[[0,0.5],[1,0.5]];portConstraint=eastwest;fontSize=33;fontStyle=1" parent="PurhWnnzGo2VnZS157Xb-28" vertex="1">
          <mxGeometry y="430" width="455" height="108" as="geometry" />
        </mxCell>
        <mxCell id="PurhWnnzGo2VnZS157Xb-38" value="通常不被缓存" style="shape=partialRectangle;html=1;whiteSpace=wrap;connectable=0;overflow=hidden;fillColor=none;top=0;left=0;bottom=0;right=0;fontSize=33;fontStyle=1" parent="PurhWnnzGo2VnZS157Xb-37" vertex="1">
          <mxGeometry width="455" height="108" as="geometry" />
        </mxCell>
        <mxCell id="PurhWnnzGo2VnZS157Xb-39" value="" style="shape=partialRectangle;html=1;whiteSpace=wrap;collapsible=0;dropTarget=0;pointerEvents=0;fillColor=none;top=0;left=0;bottom=0;right=0;points=[[0,0.5],[1,0.5]];portConstraint=eastwest;fontSize=33;fontStyle=1" parent="PurhWnnzGo2VnZS157Xb-28" vertex="1">
          <mxGeometry y="538" width="455" height="107" as="geometry" />
        </mxCell>
        <mxCell id="PurhWnnzGo2VnZS157Xb-40" value="非幂等" style="shape=partialRectangle;html=1;whiteSpace=wrap;connectable=0;overflow=hidden;fillColor=none;top=0;left=0;bottom=0;right=0;fontSize=33;fontStyle=1" parent="PurhWnnzGo2VnZS157Xb-39" vertex="1">
          <mxGeometry width="455" height="107" as="geometry" />
        </mxCell>
        <mxCell id="PurhWnnzGo2VnZS157Xb-41" value="" style="shape=partialRectangle;html=1;whiteSpace=wrap;collapsible=0;dropTarget=0;pointerEvents=0;fillColor=none;top=0;left=0;bottom=0;right=0;points=[[0,0.5],[1,0.5]];portConstraint=eastwest;fontSize=33;fontStyle=1" parent="PurhWnnzGo2VnZS157Xb-28" vertex="1">
          <mxGeometry y="645" width="455" height="108" as="geometry" />
        </mxCell>
        <mxCell id="PurhWnnzGo2VnZS157Xb-42" value="支持多种编码类型" style="shape=partialRectangle;html=1;whiteSpace=wrap;connectable=0;overflow=hidden;fillColor=none;top=0;left=0;bottom=0;right=0;fontSize=33;fontStyle=1" parent="PurhWnnzGo2VnZS157Xb-41" vertex="1">
          <mxGeometry width="455" height="108" as="geometry" />
        </mxCell>
        <mxCell id="s4eQD-G11fO3ZMLgUpAx-29" value="" style="edgeStyle=orthogonalEdgeStyle;rounded=0;orthogonalLoop=1;jettySize=auto;html=1;" parent="1" source="s4eQD-G11fO3ZMLgUpAx-2" target="s4eQD-G11fO3ZMLgUpAx-28" edge="1">
          <mxGeometry relative="1" as="geometry" />
        </mxCell>
        <mxCell id="s4eQD-G11fO3ZMLgUpAx-2" value="200" style="text;strokeColor=#36393d;html=1;fontSize=40;fontStyle=1;verticalAlign=middle;align=center;fillColor=#6BD8FF;gradientColor=#85FF99;" parent="1" vertex="1">
          <mxGeometry x="-380" y="6320" width="122" height="64" as="geometry" />
        </mxCell>
        <mxCell id="s4eQD-G11fO3ZMLgUpAx-50" style="edgeStyle=orthogonalEdgeStyle;rounded=0;orthogonalLoop=1;jettySize=auto;html=1;exitX=0.5;exitY=1;exitDx=0;exitDy=0;entryX=0.5;entryY=0;entryDx=0;entryDy=0;" parent="1" source="s4eQD-G11fO3ZMLgUpAx-18" target="s4eQD-G11fO3ZMLgUpAx-32" edge="1">
          <mxGeometry relative="1" as="geometry" />
        </mxCell>
        <mxCell id="s4eQD-G11fO3ZMLgUpAx-18" value="301" style="text;strokeColor=#36393d;html=1;fontSize=40;fontStyle=1;verticalAlign=middle;align=center;fillColor=#6BD8FF;gradientColor=#85FF99;" parent="1" vertex="1">
          <mxGeometry x="-173" y="6320" width="122" height="64" as="geometry" />
        </mxCell>
        <mxCell id="s4eQD-G11fO3ZMLgUpAx-51" style="edgeStyle=orthogonalEdgeStyle;rounded=0;orthogonalLoop=1;jettySize=auto;html=1;" parent="1" source="s4eQD-G11fO3ZMLgUpAx-19" target="s4eQD-G11fO3ZMLgUpAx-34" edge="1">
          <mxGeometry relative="1" as="geometry" />
        </mxCell>
        <mxCell id="s4eQD-G11fO3ZMLgUpAx-19" value="302" style="text;strokeColor=#36393d;html=1;fontSize=40;fontStyle=1;verticalAlign=middle;align=center;fillColor=#6BD8FF;gradientColor=#85FF99;" parent="1" vertex="1">
          <mxGeometry x="35" y="6320" width="122" height="64" as="geometry" />
        </mxCell>
        <mxCell id="s4eQD-G11fO3ZMLgUpAx-52" style="edgeStyle=orthogonalEdgeStyle;rounded=0;orthogonalLoop=1;jettySize=auto;html=1;" parent="1" source="s4eQD-G11fO3ZMLgUpAx-20" target="s4eQD-G11fO3ZMLgUpAx-36" edge="1">
          <mxGeometry relative="1" as="geometry" />
        </mxCell>
        <mxCell id="s4eQD-G11fO3ZMLgUpAx-20" value="304" style="text;strokeColor=#36393d;html=1;fontSize=40;fontStyle=1;verticalAlign=middle;align=center;fillColor=#6BD8FF;gradientColor=#85FF99;" parent="1" vertex="1">
          <mxGeometry x="243" y="6320" width="122" height="64" as="geometry" />
        </mxCell>
        <mxCell id="s4eQD-G11fO3ZMLgUpAx-53" style="edgeStyle=orthogonalEdgeStyle;rounded=0;orthogonalLoop=1;jettySize=auto;html=1;entryX=0.5;entryY=0;entryDx=0;entryDy=0;" parent="1" source="s4eQD-G11fO3ZMLgUpAx-21" target="s4eQD-G11fO3ZMLgUpAx-38" edge="1">
          <mxGeometry relative="1" as="geometry" />
        </mxCell>
        <mxCell id="s4eQD-G11fO3ZMLgUpAx-21" value="400" style="text;strokeColor=#36393d;html=1;fontSize=40;fontStyle=1;verticalAlign=middle;align=center;fillColor=#6BD8FF;gradientColor=#85FF99;" parent="1" vertex="1">
          <mxGeometry x="451" y="6320" width="122" height="64" as="geometry" />
        </mxCell>
        <mxCell id="s4eQD-G11fO3ZMLgUpAx-54" style="edgeStyle=orthogonalEdgeStyle;rounded=0;orthogonalLoop=1;jettySize=auto;html=1;" parent="1" source="s4eQD-G11fO3ZMLgUpAx-22" target="s4eQD-G11fO3ZMLgUpAx-40" edge="1">
          <mxGeometry relative="1" as="geometry" />
        </mxCell>
        <mxCell id="s4eQD-G11fO3ZMLgUpAx-22" value="401" style="text;strokeColor=#36393d;html=1;fontSize=40;fontStyle=1;verticalAlign=middle;align=center;fillColor=#6BD8FF;gradientColor=#85FF99;" parent="1" vertex="1">
          <mxGeometry x="657" y="6320" width="122" height="64" as="geometry" />
        </mxCell>
        <mxCell id="s4eQD-G11fO3ZMLgUpAx-55" style="edgeStyle=orthogonalEdgeStyle;rounded=0;orthogonalLoop=1;jettySize=auto;html=1;entryX=0.5;entryY=0;entryDx=0;entryDy=0;" parent="1" source="s4eQD-G11fO3ZMLgUpAx-23" target="s4eQD-G11fO3ZMLgUpAx-42" edge="1">
          <mxGeometry relative="1" as="geometry" />
        </mxCell>
        <mxCell id="s4eQD-G11fO3ZMLgUpAx-23" value="403" style="text;strokeColor=#36393d;html=1;fontSize=40;fontStyle=1;verticalAlign=middle;align=center;fillColor=#6BD8FF;gradientColor=#85FF99;" parent="1" vertex="1">
          <mxGeometry x="863" y="6320" width="122" height="64" as="geometry" />
        </mxCell>
        <mxCell id="s4eQD-G11fO3ZMLgUpAx-56" style="edgeStyle=orthogonalEdgeStyle;rounded=0;orthogonalLoop=1;jettySize=auto;html=1;" parent="1" source="s4eQD-G11fO3ZMLgUpAx-24" target="s4eQD-G11fO3ZMLgUpAx-44" edge="1">
          <mxGeometry relative="1" as="geometry" />
        </mxCell>
        <mxCell id="s4eQD-G11fO3ZMLgUpAx-24" value="404" style="text;strokeColor=#36393d;html=1;fontSize=40;fontStyle=1;verticalAlign=middle;align=center;fillColor=#6BD8FF;gradientColor=#85FF99;" parent="1" vertex="1">
          <mxGeometry x="1068" y="6320" width="122" height="64" as="geometry" />
        </mxCell>
        <mxCell id="s4eQD-G11fO3ZMLgUpAx-57" style="edgeStyle=orthogonalEdgeStyle;rounded=0;orthogonalLoop=1;jettySize=auto;html=1;" parent="1" source="s4eQD-G11fO3ZMLgUpAx-25" target="s4eQD-G11fO3ZMLgUpAx-46" edge="1">
          <mxGeometry relative="1" as="geometry" />
        </mxCell>
        <mxCell id="s4eQD-G11fO3ZMLgUpAx-25" value="500" style="text;strokeColor=#36393d;html=1;fontSize=40;fontStyle=1;verticalAlign=middle;align=center;fillColor=#6BD8FF;gradientColor=#85FF99;" parent="1" vertex="1">
          <mxGeometry x="1273" y="6320" width="122" height="64" as="geometry" />
        </mxCell>
        <mxCell id="s4eQD-G11fO3ZMLgUpAx-58" style="edgeStyle=orthogonalEdgeStyle;rounded=0;orthogonalLoop=1;jettySize=auto;html=1;" parent="1" source="s4eQD-G11fO3ZMLgUpAx-26" target="s4eQD-G11fO3ZMLgUpAx-48" edge="1">
          <mxGeometry relative="1" as="geometry" />
        </mxCell>
        <mxCell id="s4eQD-G11fO3ZMLgUpAx-26" value="503" style="text;strokeColor=#36393d;html=1;fontSize=40;fontStyle=1;verticalAlign=middle;align=center;fillColor=#6BD8FF;gradientColor=#85FF99;" parent="1" vertex="1">
          <mxGeometry x="1480" y="6320" width="122" height="64" as="geometry" />
        </mxCell>
        <mxCell id="s4eQD-G11fO3ZMLgUpAx-61" value="" style="edgeStyle=orthogonalEdgeStyle;rounded=0;orthogonalLoop=1;jettySize=auto;html=1;fontSize=30;" parent="1" source="s4eQD-G11fO3ZMLgUpAx-28" target="s4eQD-G11fO3ZMLgUpAx-60" edge="1">
          <mxGeometry relative="1" as="geometry" />
        </mxCell>
        <mxCell id="s4eQD-G11fO3ZMLgUpAx-28" value="OK,&lt;br&gt;&lt;br&gt;表示请求&lt;br&gt;已被&lt;br&gt;正确处理&lt;br&gt;" style="text;strokeColor=#36393d;html=1;fontSize=30;fontStyle=1;verticalAlign=top;align=center;fillColor=#f9f7ed;" parent="1" vertex="1">
          <mxGeometry x="-380" y="6464" width="122" height="326" as="geometry" />
        </mxCell>
        <mxCell id="s4eQD-G11fO3ZMLgUpAx-63" value="" style="edgeStyle=orthogonalEdgeStyle;rounded=0;orthogonalLoop=1;jettySize=auto;html=1;fontSize=30;" parent="1" source="s4eQD-G11fO3ZMLgUpAx-32" target="s4eQD-G11fO3ZMLgUpAx-62" edge="1">
          <mxGeometry relative="1" as="geometry" />
        </mxCell>
        <mxCell id="s4eQD-G11fO3ZMLgUpAx-32" value="Moved&lt;br&gt;Permanently&lt;br&gt;&lt;br&gt;表示资源&lt;br&gt;永久&lt;br&gt;重定向&lt;br&gt;到新URL" style="text;strokeColor=#36393d;html=1;fontSize=30;fontStyle=1;verticalAlign=top;align=center;fillColor=#f9f7ed;" parent="1" vertex="1">
          <mxGeometry x="-173" y="6464" width="122" height="326" as="geometry" />
        </mxCell>
        <mxCell id="s4eQD-G11fO3ZMLgUpAx-65" value="" style="edgeStyle=orthogonalEdgeStyle;rounded=0;orthogonalLoop=1;jettySize=auto;html=1;fontSize=30;" parent="1" source="s4eQD-G11fO3ZMLgUpAx-34" target="s4eQD-G11fO3ZMLgUpAx-64" edge="1">
          <mxGeometry relative="1" as="geometry" />
        </mxCell>
        <mxCell id="s4eQD-G11fO3ZMLgUpAx-34" value="Found&lt;br&gt;&lt;br&gt;表示资源&lt;br&gt;临时&lt;br&gt;重定向&lt;br&gt;到新URL" style="text;strokeColor=#36393d;html=1;fontSize=30;fontStyle=1;verticalAlign=top;align=center;fillColor=#f9f7ed;" parent="1" vertex="1">
          <mxGeometry x="35" y="6464" width="122" height="326" as="geometry" />
        </mxCell>
        <mxCell id="s4eQD-G11fO3ZMLgUpAx-67" value="" style="edgeStyle=orthogonalEdgeStyle;rounded=0;orthogonalLoop=1;jettySize=auto;html=1;fontSize=30;" parent="1" source="s4eQD-G11fO3ZMLgUpAx-36" target="s4eQD-G11fO3ZMLgUpAx-66" edge="1">
          <mxGeometry relative="1" as="geometry" />
        </mxCell>
        <mxCell id="s4eQD-G11fO3ZMLgUpAx-36" value="Not&lt;br&gt;Modified&lt;br&gt;&lt;br&gt;表示资源&lt;br&gt;未修改，&lt;br&gt;客户端&lt;br&gt;直接使用&lt;br&gt;本地缓存" style="text;strokeColor=#36393d;html=1;fontSize=30;fontStyle=1;verticalAlign=top;align=center;fillColor=#f9f7ed;" parent="1" vertex="1">
          <mxGeometry x="243" y="6464" width="122" height="326" as="geometry" />
        </mxCell>
        <mxCell id="s4eQD-G11fO3ZMLgUpAx-69" value="" style="edgeStyle=orthogonalEdgeStyle;rounded=0;orthogonalLoop=1;jettySize=auto;html=1;fontSize=30;" parent="1" source="s4eQD-G11fO3ZMLgUpAx-38" target="s4eQD-G11fO3ZMLgUpAx-68" edge="1">
          <mxGeometry relative="1" as="geometry" />
        </mxCell>
        <mxCell id="s4eQD-G11fO3ZMLgUpAx-38" value="Bad&lt;br&gt;Request&lt;br&gt;&lt;br&gt;表示&lt;br&gt;客户端&lt;br&gt;请求格式&lt;br&gt;错误" style="text;strokeColor=#36393d;html=1;fontSize=30;fontStyle=1;verticalAlign=top;align=center;fillColor=#f9f7ed;" parent="1" vertex="1">
          <mxGeometry x="451" y="6464" width="122" height="326" as="geometry" />
        </mxCell>
        <mxCell id="s4eQD-G11fO3ZMLgUpAx-71" value="" style="edgeStyle=orthogonalEdgeStyle;rounded=0;orthogonalLoop=1;jettySize=auto;html=1;fontSize=30;" parent="1" source="s4eQD-G11fO3ZMLgUpAx-84" target="s4eQD-G11fO3ZMLgUpAx-70" edge="1">
          <mxGeometry relative="1" as="geometry" />
        </mxCell>
        <mxCell id="s4eQD-G11fO3ZMLgUpAx-40" value="Unauthorized&lt;br&gt;&lt;br&gt;表示未认证" style="text;strokeColor=#36393d;html=1;fontSize=30;fontStyle=1;verticalAlign=top;align=center;fillColor=#f9f7ed;" parent="1" vertex="1">
          <mxGeometry x="657" y="6464" width="122" height="326" as="geometry" />
        </mxCell>
        <mxCell id="s4eQD-G11fO3ZMLgUpAx-73" value="" style="edgeStyle=orthogonalEdgeStyle;rounded=0;orthogonalLoop=1;jettySize=auto;html=1;fontSize=30;" parent="1" source="s4eQD-G11fO3ZMLgUpAx-42" target="s4eQD-G11fO3ZMLgUpAx-72" edge="1">
          <mxGeometry relative="1" as="geometry" />
        </mxCell>
        <mxCell id="s4eQD-G11fO3ZMLgUpAx-42" value="Forbidden&lt;br&gt;&lt;br&gt;表示已认证&lt;br&gt;但&lt;br&gt;无权限访问" style="text;strokeColor=#36393d;html=1;fontSize=30;fontStyle=1;verticalAlign=top;align=center;fillColor=#f9f7ed;" parent="1" vertex="1">
          <mxGeometry x="863" y="6464" width="122" height="326" as="geometry" />
        </mxCell>
        <mxCell id="s4eQD-G11fO3ZMLgUpAx-75" value="" style="edgeStyle=orthogonalEdgeStyle;rounded=0;orthogonalLoop=1;jettySize=auto;html=1;fontSize=30;" parent="1" source="s4eQD-G11fO3ZMLgUpAx-44" target="s4eQD-G11fO3ZMLgUpAx-74" edge="1">
          <mxGeometry relative="1" as="geometry" />
        </mxCell>
        <mxCell id="s4eQD-G11fO3ZMLgUpAx-44" value="Not&lt;br&gt;Found&lt;br&gt;&lt;br&gt;表示资源&lt;br&gt;不存在&lt;br&gt;（暂时）" style="text;strokeColor=#36393d;html=1;fontSize=30;fontStyle=1;verticalAlign=top;align=center;fillColor=#f9f7ed;" parent="1" vertex="1">
          <mxGeometry x="1068" y="6464" width="122" height="326" as="geometry" />
        </mxCell>
        <mxCell id="s4eQD-G11fO3ZMLgUpAx-77" value="" style="edgeStyle=orthogonalEdgeStyle;rounded=0;orthogonalLoop=1;jettySize=auto;html=1;fontSize=30;" parent="1" source="s4eQD-G11fO3ZMLgUpAx-46" target="s4eQD-G11fO3ZMLgUpAx-76" edge="1">
          <mxGeometry relative="1" as="geometry" />
        </mxCell>
        <mxCell id="s4eQD-G11fO3ZMLgUpAx-46" value="Internal&lt;br&gt;Server&lt;br&gt;Error&lt;br&gt;&lt;br&gt;表示&lt;br&gt;服务器&lt;br&gt;内部错误" style="text;strokeColor=#36393d;html=1;fontSize=30;fontStyle=1;verticalAlign=top;align=center;fillColor=#f9f7ed;" parent="1" vertex="1">
          <mxGeometry x="1273" y="6464" width="122" height="326" as="geometry" />
        </mxCell>
        <mxCell id="s4eQD-G11fO3ZMLgUpAx-79" value="" style="edgeStyle=orthogonalEdgeStyle;rounded=0;orthogonalLoop=1;jettySize=auto;html=1;fontSize=30;" parent="1" source="s4eQD-G11fO3ZMLgUpAx-48" target="s4eQD-G11fO3ZMLgUpAx-78" edge="1">
          <mxGeometry relative="1" as="geometry" />
        </mxCell>
        <mxCell id="s4eQD-G11fO3ZMLgUpAx-48" value="Service&lt;br&gt;Unavailable&lt;br&gt;&lt;br&gt;表示&lt;br&gt;服务&lt;br&gt;暂不可用" style="text;strokeColor=#36393d;html=1;fontSize=30;fontStyle=1;verticalAlign=top;align=center;fillColor=#f9f7ed;" parent="1" vertex="1">
          <mxGeometry x="1480" y="6464" width="122" height="326" as="geometry" />
        </mxCell>
        <mxCell id="s4eQD-G11fO3ZMLgUpAx-60" value="访问网页&lt;br&gt;成功加载&lt;br&gt;&lt;br&gt;API 返回 &lt;br&gt;JSON 数据" style="text;strokeColor=#36393d;html=1;fontSize=30;fontStyle=1;verticalAlign=top;align=center;fillColor=#ffff88;" parent="1" vertex="1">
          <mxGeometry x="-380" y="6870" width="122" height="267" as="geometry" />
        </mxCell>
        <mxCell id="s4eQD-G11fO3ZMLgUpAx-62" value="网站更换&lt;br&gt;域名&lt;br&gt;&lt;br&gt;HTTP &lt;br&gt;升级 &lt;br&gt;HTTPS &lt;br&gt;的全局跳转" style="text;strokeColor=#36393d;html=1;fontSize=30;fontStyle=1;verticalAlign=top;align=center;fillColor=#ffff88;" parent="1" vertex="1">
          <mxGeometry x="-173" y="6870" width="122" height="267" as="geometry" />
        </mxCell>
        <mxCell id="s4eQD-G11fO3ZMLgUpAx-64" value="登录后&lt;br&gt;临时跳转到&lt;br&gt;用户主页&lt;br&gt;&lt;br&gt;OAuth &lt;br&gt;授权流程中&lt;br&gt;的回调跳转" style="text;strokeColor=#36393d;html=1;fontSize=30;fontStyle=1;verticalAlign=top;align=center;fillColor=#ffff88;" parent="1" vertex="1">
          <mxGeometry x="35" y="6870" width="122" height="267" as="geometry" />
        </mxCell>
        <mxCell id="s4eQD-G11fO3ZMLgUpAx-66" value="浏览器&lt;br&gt;缓存验证&lt;br&gt;&lt;br&gt;CDN 节点&lt;br&gt;缓存有效性&lt;br&gt;检查" style="text;strokeColor=#36393d;html=1;fontSize=30;fontStyle=1;verticalAlign=top;align=center;fillColor=#ffff88;" parent="1" vertex="1">
          <mxGeometry x="243" y="6870" width="122" height="267" as="geometry" />
        </mxCell>
        <mxCell id="s4eQD-G11fO3ZMLgUpAx-68" value="请求体 &lt;br&gt;JSON 格式错误&lt;br&gt;&lt;br&gt;缺少&lt;br&gt;必填参数&lt;br&gt;导致请求格式&lt;br&gt;错误" style="text;strokeColor=#36393d;html=1;fontSize=30;fontStyle=1;verticalAlign=top;align=center;fillColor=#ffff88;" parent="1" vertex="1">
          <mxGeometry x="451" y="6870" width="122" height="267" as="geometry" />
        </mxCell>
        <mxCell id="s4eQD-G11fO3ZMLgUpAx-70" value="未登录用户&lt;br&gt;访问&lt;br&gt;需要权限的接口&lt;br&gt;&lt;br&gt;Token &lt;br&gt;过期或无效" style="text;strokeColor=#36393d;html=1;fontSize=30;fontStyle=1;verticalAlign=top;align=center;fillColor=#ffff88;" parent="1" vertex="1">
          <mxGeometry x="657" y="6870" width="122" height="267" as="geometry" />
        </mxCell>
        <mxCell id="s4eQD-G11fO3ZMLgUpAx-72" value="普通用户&lt;br&gt;尝试访问&lt;br&gt;管理员接口&lt;br&gt;&lt;br&gt;IP 地址&lt;br&gt;被列入黑名单" style="text;strokeColor=#36393d;html=1;fontSize=30;fontStyle=1;verticalAlign=top;align=center;fillColor=#ffff88;" parent="1" vertex="1">
          <mxGeometry x="863" y="6870" width="122" height="267" as="geometry" />
        </mxCell>
        <mxCell id="s4eQD-G11fO3ZMLgUpAx-74" value="URL &lt;br&gt;路径错误&lt;br&gt;&lt;br&gt;资源&lt;br&gt;已被删除" style="text;strokeColor=#36393d;html=1;fontSize=30;fontStyle=1;verticalAlign=top;align=center;fillColor=#ffff88;" parent="1" vertex="1">
          <mxGeometry x="1068" y="6870" width="122" height="267" as="geometry" />
        </mxCell>
        <mxCell id="s4eQD-G11fO3ZMLgUpAx-76" value="代码未处理&lt;br&gt;的异常&lt;br&gt;&lt;br&gt;服务器&lt;br&gt;配置错误" style="text;strokeColor=#36393d;html=1;fontSize=30;fontStyle=1;verticalAlign=top;align=center;fillColor=#ffff88;" parent="1" vertex="1">
          <mxGeometry x="1273" y="6870" width="122" height="267" as="geometry" />
        </mxCell>
        <mxCell id="s4eQD-G11fO3ZMLgUpAx-78" value="服务器维护&lt;br&gt;窗口期&lt;br&gt;&lt;br&gt;高并发&lt;br&gt;流量&lt;br&gt;导致服务熔断" style="text;strokeColor=#36393d;html=1;fontSize=30;fontStyle=1;verticalAlign=top;align=center;fillColor=#ffff88;" parent="1" vertex="1">
          <mxGeometry x="1480" y="6870" width="122" height="267" as="geometry" />
        </mxCell>
        <mxCell id="s4eQD-G11fO3ZMLgUpAx-81" value="状态码" style="text;html=1;fontSize=40;fontStyle=1;verticalAlign=middle;align=center;strokeColor=#000000;strokeWidth=2;shadow=1;" parent="1" vertex="1">
          <mxGeometry x="-558" y="6320" width="122" height="64" as="geometry" />
        </mxCell>
        <mxCell id="s4eQD-G11fO3ZMLgUpAx-82" value="含义" style="text;html=1;fontSize=40;fontStyle=1;verticalAlign=middle;align=center;strokeColor=#000000;strokeWidth=2;shadow=1;" parent="1" vertex="1">
          <mxGeometry x="-558" y="6571" width="122" height="64" as="geometry" />
        </mxCell>
        <mxCell id="s4eQD-G11fO3ZMLgUpAx-83" value="典型场景" style="text;html=1;fontSize=40;fontStyle=1;verticalAlign=middle;align=center;strokeColor=#000000;strokeWidth=2;shadow=1;" parent="1" vertex="1">
          <mxGeometry x="-592" y="6964" width="190" height="64" as="geometry" />
        </mxCell>
        <mxCell id="s4eQD-G11fO3ZMLgUpAx-85" value="卡码笔记：https://notes.kamacoder.com" style="text;strokeColor=none;fillColor=none;html=1;fontSize=30;fontStyle=1;verticalAlign=middle;align=center;rounded=0;shadow=1;sketch=0;rotation=0;" parent="1" vertex="1">
          <mxGeometry x="1083" y="7112" width="598" height="75" as="geometry" />
        </mxCell>
        <mxCell id="s4eQD-G11fO3ZMLgUpAx-89" value="卡码笔记" style="text;strokeColor=none;fillColor=none;html=1;fontSize=35;fontStyle=1;verticalAlign=middle;align=center;rounded=0;shadow=1;sketch=0;rotation=-15;textOpacity=20;" parent="1" vertex="1">
          <mxGeometry x="6" y="6299" width="146" height="75" as="geometry" />
        </mxCell>
        <mxCell id="s4eQD-G11fO3ZMLgUpAx-90" value="卡码笔记" style="text;strokeColor=none;fillColor=none;html=1;fontSize=35;fontStyle=1;verticalAlign=middle;align=center;rounded=0;shadow=1;sketch=0;rotation=-15;textOpacity=20;" parent="1" vertex="1">
          <mxGeometry x="-207" y="6982" width="146" height="75" as="geometry" />
        </mxCell>
        <mxCell id="s4eQD-G11fO3ZMLgUpAx-91" value="卡码笔记" style="text;strokeColor=none;fillColor=none;html=1;fontSize=35;fontStyle=1;verticalAlign=middle;align=center;rounded=0;shadow=1;sketch=0;rotation=-15;textOpacity=20;" parent="1" vertex="1">
          <mxGeometry x="1472" y="6495" width="146" height="75" as="geometry" />
        </mxCell>
        <mxCell id="s4eQD-G11fO3ZMLgUpAx-92" value="卡码笔记" style="text;strokeColor=none;fillColor=none;html=1;fontSize=35;fontStyle=1;verticalAlign=middle;align=center;rounded=0;shadow=1;sketch=0;rotation=-15;textOpacity=20;" parent="1" vertex="1">
          <mxGeometry x="1233" y="6200" width="146" height="75" as="geometry" />
        </mxCell>
        <mxCell id="s4eQD-G11fO3ZMLgUpAx-84" value="卡码笔记" style="text;strokeColor=none;fillColor=none;html=1;fontSize=35;fontStyle=1;verticalAlign=middle;align=center;rounded=0;shadow=1;sketch=0;rotation=-15;textOpacity=20;" parent="1" vertex="1">
          <mxGeometry x="645" y="6776" width="146" height="75" as="geometry" />
        </mxCell>
        <mxCell id="s4eQD-G11fO3ZMLgUpAx-93" value="" style="edgeStyle=orthogonalEdgeStyle;rounded=0;orthogonalLoop=1;jettySize=auto;html=1;fontSize=30;" parent="1" source="s4eQD-G11fO3ZMLgUpAx-40" target="s4eQD-G11fO3ZMLgUpAx-84" edge="1">
          <mxGeometry relative="1" as="geometry">
            <mxPoint x="718" y="6790" as="sourcePoint" />
            <mxPoint x="718" y="6870" as="targetPoint" />
          </mxGeometry>
        </mxCell>
        <mxCell id="EWVK0juN6aZe-70fhaZd-6" value="" style="edgeStyle=orthogonalEdgeStyle;rounded=0;orthogonalLoop=1;jettySize=auto;html=1;strokeWidth=3;" parent="1" source="EWVK0juN6aZe-70fhaZd-2" target="EWVK0juN6aZe-70fhaZd-5" edge="1">
          <mxGeometry relative="1" as="geometry" />
        </mxCell>
        <mxCell id="EWVK0juN6aZe-70fhaZd-2" value="浏览器请求" style="strokeWidth=2;html=1;shape=mxgraph.flowchart.terminator;whiteSpace=wrap;fillColor=#fff2cc;strokeColor=#d6b656;fontSize=35;fontStyle=1;gradientColor=#ffd966;" parent="1" vertex="1">
          <mxGeometry x="-171.51" y="7389" width="209" height="100" as="geometry" />
        </mxCell>
        <mxCell id="EWVK0juN6aZe-70fhaZd-8" value="" style="edgeStyle=orthogonalEdgeStyle;rounded=0;orthogonalLoop=1;jettySize=auto;html=1;strokeWidth=3;" parent="1" source="EWVK0juN6aZe-70fhaZd-5" target="EWVK0juN6aZe-70fhaZd-7" edge="1">
          <mxGeometry relative="1" as="geometry" />
        </mxCell>
        <mxCell id="EWVK0juN6aZe-70fhaZd-5" value="没有禁用缓存" style="whiteSpace=wrap;html=1;fontSize=35;fillColor=#cce5ff;strokeColor=#36393d;strokeWidth=2;fontStyle=1;" parent="1" vertex="1">
          <mxGeometry x="-195.38" y="7557" width="256.75" height="99" as="geometry" />
        </mxCell>
        <mxCell id="EWVK0juN6aZe-70fhaZd-10" value="" style="edgeStyle=orthogonalEdgeStyle;rounded=0;orthogonalLoop=1;jettySize=auto;html=1;strokeWidth=3;" parent="1" source="EWVK0juN6aZe-70fhaZd-7" target="EWVK0juN6aZe-70fhaZd-9" edge="1">
          <mxGeometry relative="1" as="geometry" />
        </mxCell>
        <mxCell id="EWVK0juN6aZe-70fhaZd-23" value="是" style="edgeLabel;html=1;align=center;verticalAlign=middle;resizable=0;points=[];fontStyle=1;fontSize=30;labelBorderColor=default;" parent="EWVK0juN6aZe-70fhaZd-10" vertex="1" connectable="0">
          <mxGeometry x="-0.0346" y="4" relative="1" as="geometry">
            <mxPoint as="offset" />
          </mxGeometry>
        </mxCell>
        <mxCell id="EWVK0juN6aZe-70fhaZd-16" value="" style="edgeStyle=orthogonalEdgeStyle;rounded=0;orthogonalLoop=1;jettySize=auto;html=1;strokeWidth=3;" parent="1" source="EWVK0juN6aZe-70fhaZd-7" target="EWVK0juN6aZe-70fhaZd-15" edge="1">
          <mxGeometry relative="1" as="geometry" />
        </mxCell>
        <mxCell id="EWVK0juN6aZe-70fhaZd-17" value="&lt;font style=&quot;font-size: 30px;&quot;&gt;否&lt;/font&gt;" style="edgeLabel;html=1;align=center;verticalAlign=middle;resizable=0;points=[];fontStyle=1;labelBorderColor=default;" parent="EWVK0juN6aZe-70fhaZd-16" vertex="1" connectable="0">
          <mxGeometry x="-0.1366" y="-4" relative="1" as="geometry">
            <mxPoint as="offset" />
          </mxGeometry>
        </mxCell>
        <mxCell id="EWVK0juN6aZe-70fhaZd-7" value="Cache-Control&lt;div&gt;是否过期&lt;/div&gt;" style="rhombus;whiteSpace=wrap;html=1;fontSize=35;fillColor=#f8cecc;strokeColor=#b85450;strokeWidth=2;fontStyle=1;verticalAlign=middle;gradientColor=#ea6b66;" parent="1" vertex="1">
          <mxGeometry x="-250.51" y="7722.62" width="367" height="148" as="geometry" />
        </mxCell>
        <mxCell id="EWVK0juN6aZe-70fhaZd-12" value="" style="edgeStyle=orthogonalEdgeStyle;rounded=0;orthogonalLoop=1;jettySize=auto;html=1;strokeWidth=3;" parent="1" source="EWVK0juN6aZe-70fhaZd-9" target="EWVK0juN6aZe-70fhaZd-11" edge="1">
          <mxGeometry relative="1" as="geometry" />
        </mxCell>
        <mxCell id="EWVK0juN6aZe-70fhaZd-21" value="是" style="edgeLabel;html=1;align=center;verticalAlign=middle;resizable=0;points=[];fontSize=30;fontStyle=1;labelBorderColor=default;" parent="EWVK0juN6aZe-70fhaZd-12" vertex="1" connectable="0">
          <mxGeometry x="-0.0622" relative="1" as="geometry">
            <mxPoint x="-1" as="offset" />
          </mxGeometry>
        </mxCell>
        <mxCell id="EWVK0juN6aZe-70fhaZd-18" style="edgeStyle=orthogonalEdgeStyle;rounded=0;orthogonalLoop=1;jettySize=auto;html=1;strokeWidth=3;" parent="1" source="EWVK0juN6aZe-70fhaZd-9" target="EWVK0juN6aZe-70fhaZd-13" edge="1">
          <mxGeometry relative="1" as="geometry" />
        </mxCell>
        <mxCell id="EWVK0juN6aZe-70fhaZd-19" value="否" style="edgeLabel;html=1;align=center;verticalAlign=middle;resizable=0;points=[];fontSize=30;fontStyle=1;labelBorderColor=default;" parent="EWVK0juN6aZe-70fhaZd-18" vertex="1" connectable="0">
          <mxGeometry x="-0.0059" y="-3" relative="1" as="geometry">
            <mxPoint as="offset" />
          </mxGeometry>
        </mxCell>
        <mxCell id="EWVK0juN6aZe-70fhaZd-27" value="否" style="edgeLabel;html=1;align=center;verticalAlign=middle;resizable=0;points=[];fontSize=30;fontStyle=1;labelBorderColor=default;" parent="EWVK0juN6aZe-70fhaZd-18" vertex="1" connectable="0">
          <mxGeometry x="-0.0059" y="-3" relative="1" as="geometry">
            <mxPoint x="-2" y="230" as="offset" />
          </mxGeometry>
        </mxCell>
        <mxCell id="EWVK0juN6aZe-70fhaZd-9" value="判断是否有Etag" style="rhombus;whiteSpace=wrap;html=1;fontSize=35;fillColor=#f8cecc;strokeColor=#b85450;strokeWidth=2;fontStyle=1;gradientColor=#ea6b66;" parent="1" vertex="1">
          <mxGeometry x="278.49" y="7722.62" width="367" height="148" as="geometry" />
        </mxCell>
        <mxCell id="EWVK0juN6aZe-70fhaZd-33" style="edgeStyle=orthogonalEdgeStyle;rounded=0;orthogonalLoop=1;jettySize=auto;html=1;strokeWidth=3;" parent="1" source="EWVK0juN6aZe-70fhaZd-11" target="EWVK0juN6aZe-70fhaZd-31" edge="1">
          <mxGeometry relative="1" as="geometry" />
        </mxCell>
        <mxCell id="EWVK0juN6aZe-70fhaZd-11" value="带 If-None-Match&lt;div&gt;向Web服务器请求&lt;/div&gt;" style="whiteSpace=wrap;html=1;fontSize=35;fillColor=#cce5ff;strokeColor=#36393d;strokeWidth=2;fontStyle=1;" parent="1" vertex="1">
          <mxGeometry x="808.99" y="7722.62" width="366.5" height="150.38" as="geometry" />
        </mxCell>
        <mxCell id="EWVK0juN6aZe-70fhaZd-20" style="edgeStyle=orthogonalEdgeStyle;rounded=0;orthogonalLoop=1;jettySize=auto;html=1;strokeWidth=3;" parent="1" source="EWVK0juN6aZe-70fhaZd-13" target="EWVK0juN6aZe-70fhaZd-14" edge="1">
          <mxGeometry relative="1" as="geometry" />
        </mxCell>
        <mxCell id="EWVK0juN6aZe-70fhaZd-22" value="是" style="edgeLabel;html=1;align=center;verticalAlign=middle;resizable=0;points=[];fontSize=30;fontStyle=1;labelBorderColor=default;" parent="EWVK0juN6aZe-70fhaZd-20" vertex="1" connectable="0">
          <mxGeometry x="-0.1111" y="-5" relative="1" as="geometry">
            <mxPoint x="-1" as="offset" />
          </mxGeometry>
        </mxCell>
        <mxCell id="EWVK0juN6aZe-70fhaZd-13" value="判断是否有&lt;div&gt;Last-Modified&lt;/div&gt;" style="rhombus;whiteSpace=wrap;html=1;fontSize=35;fillColor=#f8cecc;strokeColor=#b85450;strokeWidth=2;fontStyle=1;gradientColor=#ea6b66;" parent="1" vertex="1">
          <mxGeometry x="278.49" y="7976" width="367" height="148" as="geometry" />
        </mxCell>
        <mxCell id="EWVK0juN6aZe-70fhaZd-32" style="edgeStyle=orthogonalEdgeStyle;rounded=0;orthogonalLoop=1;jettySize=auto;html=1;strokeWidth=3;" parent="1" source="EWVK0juN6aZe-70fhaZd-14" target="EWVK0juN6aZe-70fhaZd-31" edge="1">
          <mxGeometry relative="1" as="geometry" />
        </mxCell>
        <mxCell id="EWVK0juN6aZe-70fhaZd-14" value="带 If-Modified-Since&lt;div&gt;向Web服务器请求&lt;/div&gt;" style="whiteSpace=wrap;html=1;fontSize=35;fillColor=#cce5ff;strokeColor=#36393d;strokeWidth=2;fontStyle=1;" parent="1" vertex="1">
          <mxGeometry x="808.99" y="7976" width="366.5" height="150.38" as="geometry" />
        </mxCell>
        <mxCell id="EWVK0juN6aZe-70fhaZd-37" style="edgeStyle=orthogonalEdgeStyle;rounded=0;orthogonalLoop=1;jettySize=auto;html=1;strokeWidth=3;" parent="1" source="EWVK0juN6aZe-70fhaZd-15" target="EWVK0juN6aZe-70fhaZd-35" edge="1">
          <mxGeometry relative="1" as="geometry">
            <Array as="points">
              <mxPoint x="-67" y="8516" />
              <mxPoint x="462" y="8516" />
            </Array>
          </mxGeometry>
        </mxCell>
        <mxCell id="EWVK0juN6aZe-70fhaZd-15" value="直接使用&lt;div&gt;本地缓存&lt;/div&gt;" style="whiteSpace=wrap;html=1;fontSize=35;fillColor=#cce5ff;strokeColor=#36393d;strokeWidth=2;fontStyle=1;" parent="1" vertex="1">
          <mxGeometry x="-260" y="8004" width="386" height="129" as="geometry" />
        </mxCell>
        <mxCell id="EWVK0juN6aZe-70fhaZd-29" value="" style="edgeStyle=orthogonalEdgeStyle;rounded=0;orthogonalLoop=1;jettySize=auto;html=1;strokeWidth=3;" parent="1" source="EWVK0juN6aZe-70fhaZd-24" target="EWVK0juN6aZe-70fhaZd-28" edge="1">
          <mxGeometry relative="1" as="geometry" />
        </mxCell>
        <mxCell id="EWVK0juN6aZe-70fhaZd-24" value="向Web服务器请求" style="whiteSpace=wrap;html=1;fontSize=35;fillColor=#cce5ff;strokeColor=#36393d;strokeWidth=2;fontStyle=1;" parent="1" vertex="1">
          <mxGeometry x="301.74" y="8205" width="320.5" height="102" as="geometry" />
        </mxCell>
        <mxCell id="EWVK0juN6aZe-70fhaZd-36" style="edgeStyle=orthogonalEdgeStyle;rounded=0;orthogonalLoop=1;jettySize=auto;html=1;strokeWidth=3;" parent="1" source="EWVK0juN6aZe-70fhaZd-28" target="EWVK0juN6aZe-70fhaZd-35" edge="1">
          <mxGeometry relative="1" as="geometry" />
        </mxCell>
        <mxCell id="EWVK0juN6aZe-70fhaZd-28" value="请求响应" style="whiteSpace=wrap;html=1;fontSize=35;fillColor=#cce5ff;strokeColor=#36393d;strokeWidth=2;fontStyle=1;" parent="1" vertex="1">
          <mxGeometry x="352.49" y="8374" width="220.5" height="92" as="geometry" />
        </mxCell>
        <mxCell id="EWVK0juN6aZe-70fhaZd-34" style="edgeStyle=orthogonalEdgeStyle;rounded=0;orthogonalLoop=1;jettySize=auto;html=1;strokeWidth=3;" parent="1" source="EWVK0juN6aZe-70fhaZd-31" target="EWVK0juN6aZe-70fhaZd-28" edge="1">
          <mxGeometry relative="1" as="geometry">
            <Array as="points">
              <mxPoint x="1097" y="8253" />
              <mxPoint x="1097" y="8425" />
            </Array>
          </mxGeometry>
        </mxCell>
        <mxCell id="EWVK0juN6aZe-70fhaZd-38" value="若资源发生更新，&lt;div&gt;则返回新资源（200）&lt;/div&gt;" style="edgeLabel;html=1;align=center;verticalAlign=middle;resizable=0;points=[];fontSize=35;fontStyle=1;labelBorderColor=default;" parent="EWVK0juN6aZe-70fhaZd-34" vertex="1" connectable="0">
          <mxGeometry x="-0.0125" y="-4" relative="1" as="geometry">
            <mxPoint x="-14" y="-82" as="offset" />
          </mxGeometry>
        </mxCell>
        <mxCell id="EWVK0juN6aZe-70fhaZd-43" value="若资源没有更新，返回304" style="edgeLabel;html=1;align=center;verticalAlign=middle;resizable=0;points=[];fontSize=35;fontStyle=1;labelBorderColor=default;" parent="EWVK0juN6aZe-70fhaZd-34" vertex="1" connectable="0">
          <mxGeometry x="-0.0125" y="-4" relative="1" as="geometry">
            <mxPoint x="561" y="2" as="offset" />
          </mxGeometry>
        </mxCell>
        <mxCell id="EWVK0juN6aZe-70fhaZd-40" value="" style="edgeStyle=orthogonalEdgeStyle;rounded=0;orthogonalLoop=1;jettySize=auto;html=1;strokeWidth=3;" parent="1" source="EWVK0juN6aZe-70fhaZd-31" target="EWVK0juN6aZe-70fhaZd-39" edge="1">
          <mxGeometry relative="1" as="geometry" />
        </mxCell>
        <mxCell id="EWVK0juN6aZe-70fhaZd-31" value="服务器经过判断，决策是200还是304" style="rhombus;whiteSpace=wrap;html=1;fontSize=35;fillColor=#f8cecc;strokeColor=#b85450;strokeWidth=2;fontStyle=1;gradientColor=#ea6b66;" parent="1" vertex="1">
          <mxGeometry x="1445" y="8135" width="420" height="235" as="geometry" />
        </mxCell>
        <mxCell id="EWVK0juN6aZe-70fhaZd-35" value="浏览器渲染" style="strokeWidth=2;html=1;shape=mxgraph.flowchart.terminator;whiteSpace=wrap;fillColor=#fff2cc;strokeColor=#d6b656;fontSize=35;fontStyle=1;gradientColor=#ffd966;" parent="1" vertex="1">
          <mxGeometry x="357.49" y="8579" width="209" height="100" as="geometry" />
        </mxCell>
        <mxCell id="EWVK0juN6aZe-70fhaZd-39" value="从浏览器缓存读取" style="whiteSpace=wrap;html=1;fontSize=35;fillColor=#cce5ff;strokeColor=#36393d;strokeWidth=2;fontStyle=1;" parent="1" vertex="1">
          <mxGeometry x="1514" y="8485" width="282" height="122.5" as="geometry" />
        </mxCell>
        <mxCell id="EWVK0juN6aZe-70fhaZd-42" style="edgeStyle=orthogonalEdgeStyle;rounded=0;orthogonalLoop=1;jettySize=auto;html=1;exitX=0;exitY=0.25;exitDx=0;exitDy=0;entryX=0.5;entryY=0;entryDx=0;entryDy=0;entryPerimeter=0;strokeWidth=3;" parent="1" source="EWVK0juN6aZe-70fhaZd-39" target="EWVK0juN6aZe-70fhaZd-35" edge="1">
          <mxGeometry relative="1" as="geometry" />
        </mxCell>
        <mxCell id="EWVK0juN6aZe-70fhaZd-44" value="卡码笔记" style="text;strokeColor=none;fillColor=none;html=1;fontSize=35;fontStyle=1;verticalAlign=middle;align=center;textOpacity=10;rotation=-15;" parent="1" vertex="1">
          <mxGeometry x="813.9999999999999" y="7983" width="162.75" height="59" as="geometry" />
        </mxCell>
        <mxCell id="EWVK0juN6aZe-70fhaZd-45" value="卡码笔记：notes.kamacoder.com" style="text;strokeColor=none;fillColor=none;html=1;fontSize=30;fontStyle=1;verticalAlign=middle;align=center;rounded=0;shadow=1;sketch=0;rotation=0;" parent="1" vertex="1">
          <mxGeometry x="1392" y="8618" width="548" height="75" as="geometry" />
        </mxCell>
        <mxCell id="EWVK0juN6aZe-70fhaZd-46" value="卡码笔记" style="text;strokeColor=none;fillColor=none;html=1;fontSize=35;fontStyle=1;verticalAlign=middle;align=center;textOpacity=10;rotation=-15;" parent="1" vertex="1">
          <mxGeometry x="403.7399999999999" y="7768.31" width="162.75" height="59" as="geometry" />
        </mxCell>
        <mxCell id="EWVK0juN6aZe-70fhaZd-47" value="卡码笔记" style="text;strokeColor=none;fillColor=none;html=1;fontSize=35;fontStyle=1;verticalAlign=middle;align=center;textOpacity=20;rotation=-15;" parent="1" vertex="1">
          <mxGeometry x="1556" y="8212" width="162.75" height="59" as="geometry" />
        </mxCell>
        <mxCell id="EWVK0juN6aZe-70fhaZd-48" value="卡码笔记" style="text;strokeColor=none;fillColor=none;html=1;fontSize=35;fontStyle=1;verticalAlign=middle;align=center;textOpacity=10;rotation=-15;" parent="1" vertex="1">
          <mxGeometry x="1114" y="8283" width="162.75" height="59" as="geometry" />
        </mxCell>
        <mxCell id="EWVK0juN6aZe-70fhaZd-49" value="卡码笔记" style="text;strokeColor=none;fillColor=none;html=1;fontSize=35;fontStyle=1;verticalAlign=middle;align=center;textOpacity=10;rotation=-15;" parent="1" vertex="1">
          <mxGeometry x="-280" y="8046" width="162.75" height="59" as="geometry" />
        </mxCell>
        <mxCell id="uu7l3Kxnv63Fepq91U7A-3" value="The difference between HTTP/1.0 and HTTP/1.1" style="text;strokeColor=#d6b656;fillColor=#fff2cc;html=1;fontSize=40;fontStyle=1;verticalAlign=middle;align=center;gradientColor=#ffd966;" vertex="1" parent="1">
          <mxGeometry x="-176" y="9022" width="1609" height="85" as="geometry" />
        </mxCell>
        <mxCell id="uu7l3Kxnv63Fepq91U7A-4" value="HTTP/1.0" style="text;strokeColor=#666666;fillColor=#f5f5f5;html=1;fontSize=40;fontStyle=1;verticalAlign=middle;align=center;rounded=1;strokeWidth=3;shadow=1;gradientColor=#b3b3b3;glass=1;" vertex="1" parent="1">
          <mxGeometry x="-99" y="9192" width="206" height="102" as="geometry" />
        </mxCell>
        <mxCell id="uu7l3Kxnv63Fepq91U7A-5" style="rounded=0;orthogonalLoop=1;jettySize=auto;html=1;exitX=0;exitY=0.5;exitDx=0;exitDy=0;strokeWidth=3;fontSize=30;shape=link;" edge="1" parent="1" source="uu7l3Kxnv63Fepq91U7A-7" target="uu7l3Kxnv63Fepq91U7A-34">
          <mxGeometry relative="1" as="geometry" />
        </mxCell>
        <mxCell id="uu7l3Kxnv63Fepq91U7A-6" style="edgeStyle=none;shape=link;rounded=0;orthogonalLoop=1;jettySize=auto;html=1;exitX=1;exitY=0.5;exitDx=0;exitDy=0;strokeWidth=3;fontSize=30;" edge="1" parent="1" source="uu7l3Kxnv63Fepq91U7A-7" target="uu7l3Kxnv63Fepq91U7A-49">
          <mxGeometry relative="1" as="geometry" />
        </mxCell>
        <mxCell id="uu7l3Kxnv63Fepq91U7A-7" value="Default Connection" style="text;strokeColor=#82b366;fillColor=#d5e8d4;html=1;fontSize=35;fontStyle=1;verticalAlign=middle;align=center;rounded=1;gradientColor=#97d077;shadow=1;glass=1;treeFolding=0;treeMoving=0;enumerate=0;metaEdit=0;snapToPoint=0;noLabel=0;" vertex="1" parent="1">
          <mxGeometry x="436" y="9340" width="350" height="79" as="geometry" />
        </mxCell>
        <mxCell id="uu7l3Kxnv63Fepq91U7A-8" value="HTTP/1.1" style="text;strokeColor=#666666;fillColor=#f5f5f5;html=1;fontSize=40;fontStyle=1;verticalAlign=middle;align=center;rounded=1;gradientColor=#b3b3b3;strokeWidth=3;shadow=1;glass=1;" vertex="1" parent="1">
          <mxGeometry x="1130" y="9192" width="206" height="102" as="geometry" />
        </mxCell>
        <mxCell id="uu7l3Kxnv63Fepq91U7A-9" style="edgeStyle=none;shape=link;rounded=0;orthogonalLoop=1;jettySize=auto;html=1;exitX=0;exitY=0.5;exitDx=0;exitDy=0;strokeWidth=3;fontSize=30;" edge="1" parent="1" source="uu7l3Kxnv63Fepq91U7A-11" target="uu7l3Kxnv63Fepq91U7A-36">
          <mxGeometry relative="1" as="geometry" />
        </mxCell>
        <mxCell id="uu7l3Kxnv63Fepq91U7A-10" style="edgeStyle=none;shape=link;rounded=0;orthogonalLoop=1;jettySize=auto;html=1;exitX=1;exitY=0.5;exitDx=0;exitDy=0;strokeWidth=3;fontSize=30;" edge="1" parent="1" source="uu7l3Kxnv63Fepq91U7A-11" target="uu7l3Kxnv63Fepq91U7A-51">
          <mxGeometry relative="1" as="geometry" />
        </mxCell>
        <mxCell id="uu7l3Kxnv63Fepq91U7A-11" value="Host Header" style="text;strokeColor=#82b366;fillColor=#d5e8d4;html=1;fontSize=35;fontStyle=1;verticalAlign=middle;align=center;rounded=1;gradientColor=#97d077;shadow=1;glass=1;treeFolding=0;treeMoving=0;enumerate=0;metaEdit=0;snapToPoint=0;noLabel=0;" vertex="1" parent="1">
          <mxGeometry x="489.13" y="9445.5" width="243.75" height="83" as="geometry" />
        </mxCell>
        <mxCell id="uu7l3Kxnv63Fepq91U7A-12" style="edgeStyle=none;shape=link;rounded=0;orthogonalLoop=1;jettySize=auto;html=1;exitX=0;exitY=0.5;exitDx=0;exitDy=0;strokeWidth=3;fontSize=30;shadow=0;flowAnimation=0;" edge="1" parent="1" source="uu7l3Kxnv63Fepq91U7A-14" target="uu7l3Kxnv63Fepq91U7A-38">
          <mxGeometry relative="1" as="geometry" />
        </mxCell>
        <mxCell id="uu7l3Kxnv63Fepq91U7A-13" style="edgeStyle=none;shape=link;rounded=0;orthogonalLoop=1;jettySize=auto;html=1;exitX=1;exitY=0.5;exitDx=0;exitDy=0;strokeWidth=3;fontSize=30;" edge="1" parent="1" source="uu7l3Kxnv63Fepq91U7A-14" target="uu7l3Kxnv63Fepq91U7A-53">
          <mxGeometry relative="1" as="geometry" />
        </mxCell>
        <mxCell id="uu7l3Kxnv63Fepq91U7A-14" value="Chunked Transfer Encoding" style="text;strokeColor=#82b366;fillColor=#d5e8d4;html=1;fontSize=30;fontStyle=1;verticalAlign=middle;align=center;rounded=1;gradientColor=#97d077;shadow=1;glass=1;treeFolding=0;treeMoving=0;enumerate=0;metaEdit=0;snapToPoint=0;noLabel=0;" vertex="1" parent="1">
          <mxGeometry x="403.5" y="9558.5" width="415" height="79" as="geometry" />
        </mxCell>
        <mxCell id="uu7l3Kxnv63Fepq91U7A-15" style="edgeStyle=none;shape=link;rounded=0;orthogonalLoop=1;jettySize=auto;html=1;exitX=0;exitY=0.5;exitDx=0;exitDy=0;strokeWidth=3;fontSize=30;" edge="1" parent="1" source="uu7l3Kxnv63Fepq91U7A-17" target="uu7l3Kxnv63Fepq91U7A-40">
          <mxGeometry relative="1" as="geometry" />
        </mxCell>
        <mxCell id="uu7l3Kxnv63Fepq91U7A-16" style="edgeStyle=none;shape=link;rounded=0;orthogonalLoop=1;jettySize=auto;html=1;exitX=1;exitY=0.5;exitDx=0;exitDy=0;strokeWidth=3;fontSize=30;" edge="1" parent="1" source="uu7l3Kxnv63Fepq91U7A-17" target="uu7l3Kxnv63Fepq91U7A-55">
          <mxGeometry relative="1" as="geometry" />
        </mxCell>
        <mxCell id="uu7l3Kxnv63Fepq91U7A-17" value="Caching Mechanism" style="text;strokeColor=#82b366;fillColor=#d5e8d4;html=1;fontSize=30;fontStyle=1;verticalAlign=middle;align=center;rounded=1;gradientColor=#97d077;shadow=1;glass=1;treeFolding=0;treeMoving=0;enumerate=0;metaEdit=0;snapToPoint=0;noLabel=0;" vertex="1" parent="1">
          <mxGeometry x="437" y="9665.5" width="348" height="79" as="geometry" />
        </mxCell>
        <mxCell id="uu7l3Kxnv63Fepq91U7A-18" style="edgeStyle=none;shape=link;rounded=0;orthogonalLoop=1;jettySize=auto;html=1;exitX=0;exitY=0.5;exitDx=0;exitDy=0;strokeWidth=3;fontSize=30;" edge="1" parent="1" source="uu7l3Kxnv63Fepq91U7A-20" target="uu7l3Kxnv63Fepq91U7A-42">
          <mxGeometry relative="1" as="geometry" />
        </mxCell>
        <mxCell id="uu7l3Kxnv63Fepq91U7A-19" style="edgeStyle=none;shape=link;rounded=0;orthogonalLoop=1;jettySize=auto;html=1;exitX=1;exitY=0.5;exitDx=0;exitDy=0;strokeWidth=3;fontSize=30;" edge="1" parent="1" source="uu7l3Kxnv63Fepq91U7A-20" target="uu7l3Kxnv63Fepq91U7A-57">
          <mxGeometry relative="1" as="geometry" />
        </mxCell>
        <mxCell id="uu7l3Kxnv63Fepq91U7A-20" value="HOL Blocking" style="text;strokeColor=#82b366;fillColor=#d5e8d4;html=1;fontSize=35;fontStyle=1;verticalAlign=middle;align=center;rounded=1;gradientColor=#97d077;shadow=1;glass=1;treeFolding=0;treeMoving=0;enumerate=0;metaEdit=0;snapToPoint=0;noLabel=0;" vertex="1" parent="1">
          <mxGeometry x="478" y="9772.5" width="266" height="79" as="geometry" />
        </mxCell>
        <mxCell id="uu7l3Kxnv63Fepq91U7A-21" style="edgeStyle=none;shape=link;rounded=0;orthogonalLoop=1;jettySize=auto;html=1;exitX=0;exitY=0.5;exitDx=0;exitDy=0;strokeWidth=3;fontSize=30;" edge="1" parent="1" source="uu7l3Kxnv63Fepq91U7A-23" target="uu7l3Kxnv63Fepq91U7A-44">
          <mxGeometry relative="1" as="geometry" />
        </mxCell>
        <mxCell id="uu7l3Kxnv63Fepq91U7A-22" style="edgeStyle=none;shape=link;rounded=0;orthogonalLoop=1;jettySize=auto;html=1;exitX=1;exitY=0.5;exitDx=0;exitDy=0;strokeWidth=3;fontSize=30;" edge="1" parent="1" source="uu7l3Kxnv63Fepq91U7A-23" target="uu7l3Kxnv63Fepq91U7A-59">
          <mxGeometry relative="1" as="geometry" />
        </mxCell>
        <mxCell id="uu7l3Kxnv63Fepq91U7A-23" value="Range Request" style="text;strokeColor=#82b366;fillColor=#d5e8d4;html=1;fontSize=35;fontStyle=1;verticalAlign=middle;align=center;rounded=1;gradientColor=#97d077;shadow=1;glass=1;treeFolding=0;treeMoving=0;enumerate=0;metaEdit=0;snapToPoint=0;noLabel=0;" vertex="1" parent="1">
          <mxGeometry x="462" y="9876" width="285" height="79" as="geometry" />
        </mxCell>
        <mxCell id="uu7l3Kxnv63Fepq91U7A-24" style="edgeStyle=none;shape=link;rounded=0;orthogonalLoop=1;jettySize=auto;html=1;exitX=0;exitY=0.5;exitDx=0;exitDy=0;strokeWidth=3;fontSize=30;textShadow=0;" edge="1" parent="1" source="uu7l3Kxnv63Fepq91U7A-26" target="uu7l3Kxnv63Fepq91U7A-46">
          <mxGeometry relative="1" as="geometry" />
        </mxCell>
        <mxCell id="uu7l3Kxnv63Fepq91U7A-25" style="edgeStyle=none;shape=link;rounded=0;orthogonalLoop=1;jettySize=auto;html=1;exitX=1;exitY=0.5;exitDx=0;exitDy=0;strokeWidth=3;fontSize=30;" edge="1" parent="1" source="uu7l3Kxnv63Fepq91U7A-26" target="uu7l3Kxnv63Fepq91U7A-61">
          <mxGeometry relative="1" as="geometry" />
        </mxCell>
        <mxCell id="uu7l3Kxnv63Fepq91U7A-26" value="Status Code" style="text;strokeColor=#82b366;fillColor=#d5e8d4;html=1;fontSize=35;fontStyle=1;verticalAlign=middle;align=center;rounded=1;gradientColor=#97d077;shadow=1;glass=1;treeFolding=0;treeMoving=0;enumerate=0;metaEdit=0;snapToPoint=0;noLabel=0;" vertex="1" parent="1">
          <mxGeometry x="483.51" y="9986" width="255" height="79" as="geometry" />
        </mxCell>
        <mxCell id="uu7l3Kxnv63Fepq91U7A-31" value="卡码笔记" style="text;strokeColor=none;fillColor=none;html=1;fontSize=35;fontStyle=1;verticalAlign=middle;align=center;rounded=0;shadow=1;sketch=0;rotation=-15;textOpacity=15;opacity=50;" vertex="1" parent="1">
          <mxGeometry x="1317" y="9967" width="146" height="75" as="geometry" />
        </mxCell>
        <mxCell id="uu7l3Kxnv63Fepq91U7A-32" value="卡码笔记" style="text;strokeColor=none;fillColor=none;html=1;fontSize=35;fontStyle=1;verticalAlign=middle;align=center;rounded=0;shadow=1;sketch=0;rotation=-15;textOpacity=15;opacity=50;" vertex="1" parent="1">
          <mxGeometry x="481" y="9779" width="146" height="75" as="geometry" />
        </mxCell>
        <mxCell id="uu7l3Kxnv63Fepq91U7A-64" value="卡码笔记" style="text;strokeColor=none;fillColor=none;html=1;fontSize=35;fontStyle=1;verticalAlign=middle;align=center;rounded=0;shadow=1;sketch=0;rotation=-15;textOpacity=15;opacity=50;" vertex="1" parent="1">
          <mxGeometry x="779.73" y="9022" width="146" height="75" as="geometry" />
        </mxCell>
        <mxCell id="uu7l3Kxnv63Fepq91U7A-65" value="卡码笔记" style="text;strokeColor=none;fillColor=none;html=1;fontSize=35;fontStyle=1;verticalAlign=middle;align=center;rounded=0;shadow=1;sketch=0;rotation=-15;textOpacity=15;opacity=50;" vertex="1" parent="1">
          <mxGeometry x="1144" y="9205.5" width="146" height="75" as="geometry" />
        </mxCell>
        <mxCell id="uu7l3Kxnv63Fepq91U7A-66" value="卡码笔记" style="text;strokeColor=none;fillColor=none;html=1;fontSize=35;fontStyle=1;verticalAlign=middle;align=center;rounded=0;shadow=1;sketch=0;rotation=-15;textOpacity=15;opacity=50;" vertex="1" parent="1">
          <mxGeometry x="-84.63000000000011" y="9772.5" width="146" height="75" as="geometry" />
        </mxCell>
        <mxCell id="uu7l3Kxnv63Fepq91U7A-67" value="卡码笔记：notes.kamacoder.com" style="text;strokeColor=none;fillColor=none;html=1;fontSize=30;fontStyle=1;verticalAlign=middle;align=center;rounded=0;shadow=1;sketch=0;rotation=0;" vertex="1" parent="1">
          <mxGeometry x="1051" y="10124" width="548" height="75" as="geometry" />
        </mxCell>
      </root>
    </mxGraphModel>
  </diagram>
</mxfile>
